<?xml version="1.0" standalone="no"?>
<!DOCTYPE svg PUBLIC "-//W3C//DTD SVG 1.1//EN" "http://www.w3.org/Graphics/SVG/1.1/DTD/svg11.dtd" >
<svg xmlns="http://www.w3.org/2000/svg">
<metadata>Generated by IcoMoon</metadata>
<defs>
<font id="devfont" horiz-adv-x="1024">
<font-face units-per-em="1024" ascent="960" descent="-64" />
<missing-glyph horiz-adv-x="1024" />
<glyph unicode="&#x20;" horiz-adv-x="512" d="" />
<glyph unicode="&#xe900;" glyph-name="a-b" d="M155.307 809.131c-13.355-4.181-20.565-10.88-24.576-22.827-2.432-7.296-2.731-27.733-2.731-188.971 0-199.339-0.427-190.933 10.539-202.496 10.667-11.136 9.344-11.051 146.645-10.453l123.563 0.512 11.947 4.011c41.409 13.508 73.312 45.678 86.186 86.313l0.257 0.94c5.76 18.517 5.76 53.205 0 71.637-4.639 15.567-11.703 29.108-20.863 40.946l0.212-0.285-6.997 8.875 6.997 8.875c8.832 11.179 15.531 24.363 20.651 40.661 5.76 18.432 5.76 53.12 0 71.637-13.021 41.551-44.962 73.675-85.469 86.696l-0.931 0.259-13.696 4.309-123.733 0.341c-68.053 0.171-125.653-0.256-128-0.981zM623.531 808.235c-9.351-2.542-16.968-8.642-21.456-16.719l-0.090-0.177c-3.157-5.931-3.797-9.856-3.797-23.339 0-14.123 0.555-17.195 4.267-23.808 4.693-8.405 12.544-14.507 21.973-17.109 3.499-0.981 29.269-1.792 59.093-1.835 59.52-0.128 67.499-1.237 85.205-11.904 11.819-7.125 25.643-21.589 32.213-33.707 7.381-13.653 9.643-28.117 9.728-61.824 0-16.427 0.811-32.64 1.749-36.053 4.565-16.427 16.896-25.472 36.48-26.709 20.693-1.323 34.261 4.651 41.984 18.475 4.139 7.339 4.267 8.832 4.821 44.288 0.64 42.112-1.92 59.819-12.288 85.504-22.511 55.302-71.795 95.49-131.313 104.752l-0.954 0.122c-21.973 3.285-117.077 3.328-127.616 0.043zM397.227 722.731c16.128-4.779 29.44-22.912 29.44-40.107 0-14.080-9.216-29.653-22.016-37.163l-7.851-4.608-183.467-0.981v85.461h87.595c73.429 0 89.003-0.427 96.299-2.603zM397.227 552.064c16.128-4.779 29.44-22.912 29.44-40.107 0-14.080-9.216-29.653-22.016-37.163l-7.851-4.608-183.467-0.981v85.461h87.595c73.429 0 89.003-0.427 96.299-2.603zM689.28 509.696c-8.34-2.894-15.218-8.228-19.966-15.14l-0.087-0.135c-1.877-3.029-24.917-60.8-51.243-128.384-26.283-67.541-49.365-125.867-51.285-129.579-1.499-2.606-2.703-5.624-3.453-8.817l-0.045-0.228c0-1.237-11.179-31.104-24.875-66.347-27.648-71.296-29.781-78.507-26.453-89.643 4.224-14.251 22.912-27.051 43.691-29.867 13.397-1.835 28.117 6.485 34.859 19.712 1.707 3.371 12.117 29.397 23.168 57.771l20.053 51.627h183.381l20.053-51.627c11.051-28.373 21.461-54.4 23.168-57.771 6.741-13.227 21.461-21.547 34.859-19.712 20.779 2.816 39.467 15.616 43.691 29.867 3.328 11.136 1.195 18.347-26.453 89.643-13.696 35.243-24.875 65.109-24.875 66.347-0.795 3.421-1.999 6.439-3.586 9.21l0.087-0.165c-1.92 3.712-25.003 62.037-51.285 129.621s-49.664 125.739-51.925 129.195c-3.383 4.421-7.457 8.115-12.096 10.983l-0.192 0.11c-8.064 4.736-8.448 4.779-40.576 5.205-23.637 0.299-34.091-0.213-38.613-1.877zM753.835 333.227l28.757-74.24c1.067-2.816-2.347-2.987-57.259-2.987s-58.325 0.171-57.259 2.987c13.653 36.309 56.619 145.451 57.259 145.451 0.469 0 13.312-32.043 28.501-71.211zM154.197 296.235c-9.351-2.542-16.968-8.642-21.456-16.719l-0.090-0.177c-3.541-6.613-3.84-9.728-4.352-43.819-0.469-32.171-0.085-38.955 3.115-54.571 11.819-58.027 49.664-103.808 103.765-125.653 27.307-11.008 40.661-12.629 102.997-12.629 31.744 0 57.856 0.768 61.397 1.749 9.493 2.619 17.237 8.778 21.88 16.932l0.093 0.177c3.712 6.656 4.267 9.643 4.224 23.808-0.043 18.475-3.456 27.52-12.843 34.176-10.795 7.68-17.621 8.491-73.216 8.491-56.149 0-63.445 0.853-79.957 9.216-17.749 9.003-36.395 30.805-42.411 49.536-2.048 6.357-3.072 18.859-3.883 47.061-1.024 34.901-1.493 39.040-4.864 45.525-2.348 4.261-5.359 7.857-8.938 10.786l-0.065 0.051c-11.264 8.064-30.763 10.624-45.397 6.059z" />
<glyph unicode="&#xe901;" glyph-name="access-point" d="M199.723 725.12c-8.277-3.285-15.915-10.709-28.501-27.563-44.117-59.349-71.979-131.541-82.688-214.571-2.944-22.699-2.987-90.795-0.043-112.64 11.392-85.504 39.979-158.549 85.077-217.685 15.019-19.712 24.576-26.368 37.717-26.368 22.528 0 46.421 21.675 46.421 42.069 0 11.435-1.579 14.976-15.445 34.731-25.216 35.883-39.211 62.933-50.987 98.645-14.464 43.819-19.456 75.691-19.456 124.928s4.992 81.109 19.456 124.928c12.232 37.010 29.189 69.144 50.56 97.793l-0.64-0.897c13.995 19.413 16.512 25.003 16.512 36.608 0 24.875-35.157 49.152-57.984 40.021zM793.6 721.92c-11.52-6.485-17.792-12.331-23.381-21.803-3.712-6.272-4.224-8.875-3.627-18.347 0.64-9.643 1.621-12.288 8.192-21.675 32.427-46.421 45.525-70.955 57.856-108.245 14.549-44.075 19.541-75.861 19.541-125.184 0-49.408-5.035-81.579-19.541-125.269-12.416-37.419-25.472-61.781-57.856-108.16-6.571-9.387-7.552-12.032-8.192-21.675-0.597-9.557-0.085-12.032 3.755-18.603 9.131-15.573 26.709-26.667 42.24-26.667 16.683 0 27.392 9.515 51.755 46.080 35.755 53.589 58.453 113.963 69.547 185.173 5.419 34.645 5.419 103.595 0 138.24-11.093 71.211-33.792 131.584-69.547 185.173-24.405 36.565-33.493 44.715-50.901 45.653-9.088 0.469-11.648-0.128-19.84-4.693zM326.699 596.608c-8.917-3.883-17.451-12.715-28.885-29.909-57.941-87.040-55.211-207.275 6.656-289.707 11.947-15.915 22.357-22.699 34.816-22.699 15.659 0 33.195 11.051 42.368 26.667 3.84 6.571 4.352 9.045 3.755 18.603-0.683 10.24-1.451 12.117-11.051 25.984-14.123 20.352-22.315 37.248-27.52 56.619-3.84 14.421-4.352 19.669-4.352 44.501s0.512 30.080 4.352 44.501c5.205 19.371 13.397 36.267 27.52 56.619 9.6 13.867 10.368 15.744 11.051 25.984 0.597 9.515 0.085 12.032-3.712 18.517-11.989 20.437-37.76 31.829-54.997 24.32zM665.6 593.92c-11.52-6.485-17.792-12.331-23.381-21.803-3.712-6.315-4.224-8.875-3.627-18.347 0.683-10.24 1.451-12.117 11.051-25.984 14.123-20.352 22.315-37.248 27.52-56.619 3.84-14.421 4.352-19.669 4.352-44.501s-0.512-30.080-4.352-44.501c-5.205-19.371-13.397-36.267-27.52-56.619-9.6-13.867-10.368-15.744-11.051-25.984-0.597-9.557-0.085-12.032 3.755-18.603 8.96-15.317 27.349-27.051 42.155-26.923 15.573 0.128 26.368 8.917 43.819 35.669 55.765 85.547 52.053 205.824-8.789 286.549-12.16 16.171-20.437 21.632-33.92 22.357-9.301 0.469-11.776-0.085-20.011-4.693zM489.685 508.886c-28.629-7.509-52.864-32-60.459-61.227-1.576-6.242-2.48-13.407-2.48-20.784 0-14.551 3.519-28.28 9.752-40.383l-0.232 0.495c5.803-11.477 24.576-30.251 36.053-36.053 11.539-6.009 25.198-9.534 39.68-9.534s28.141 3.525 40.166 9.763l-0.486-0.229c11.349 5.76 30.208 24.533 35.883 35.755 6.043 11.576 9.589 25.283 9.589 39.818 0 7.188-0.867 14.173-2.502 20.856l0.124-0.599c-3.316 14.688-10.44 27.375-20.278 37.387l0.011-0.011c-15.454 17.011-37.662 27.648-62.355 27.648-0.053 0-0.107 0-0.16 0h0.008c-6.101 0-16.128-1.323-22.315-2.901z" />
<glyph unicode="&#xe902;" glyph-name="access-point-off" d="M21.675 933.419c-7.68-5.077-15.701-13.824-19.712-21.504-2.987-5.675-2.475-27.051 0.768-33.493 1.536-2.987 40.704-43.477 87.040-89.984 46.379-46.464 84.309-85.12 84.309-85.845s-3.115-5.419-6.912-10.496c-12.297-17.244-24.235-36.953-34.697-57.538l-1.229-2.665c-20.651-43.136-35.925-96.341-42.709-148.907-2.944-22.699-2.987-90.795-0.043-112.64 11.392-85.504 39.979-158.549 85.077-217.685 15.019-19.712 24.576-26.368 37.717-26.368 22.528 0 46.421 21.675 46.421 42.069 0 11.435-1.579 14.976-15.445 34.731-25.216 35.883-39.211 62.933-50.987 98.645-14.464 43.819-19.456 75.691-19.456 124.928 0 19.243 0.939 41.515 2.048 49.493 8.576 61.056 27.989 114.389 57.941 159.232l4.309 6.528 32.981-32.939c18.133-18.133 32.981-33.493 32.981-34.176s-3.541-6.741-7.851-13.397c-54.272-83.883-49.92-204.203 10.24-284.416 11.947-15.915 22.357-22.699 34.816-22.699 15.659 0 33.195 11.051 42.368 26.667 3.84 6.571 4.352 9.045 3.755 18.603-0.683 10.24-1.451 12.117-11.051 25.984-14.123 20.395-22.315 37.248-27.477 56.619-3.797 14.165-4.395 19.968-4.437 43.648-0.128 32.341 3.2 48.896 14.635 73.045l7.083 15.019 64.085-64-1.024-15.573c-1.792-27.179 6.016-48.213 25.045-67.541 19.925-20.224 50.048-29.781 75.307-23.893l6.229 1.408 209.664-209.749c115.328-115.371 213.12-212.053 217.259-214.827 6.699-4.48 8.96-5.035 20.608-5.035 11.733 0 13.867 0.555 20.992 5.248 7.68 5.077 15.701 13.824 19.712 21.504 1.067 2.048 1.963 9.429 1.963 16.384 0 11.136-0.597 13.483-5.035 20.139-6.912 10.325-951.893 954.581-958.72 957.995-3.541 1.749-9.941 2.731-18.048 2.731-11.221 0-13.483-0.597-20.523-5.248zM793.6 721.92c-11.52-6.485-17.792-12.331-23.381-21.803-3.712-6.272-4.224-8.875-3.627-18.347 0.64-9.643 1.621-12.288 8.192-21.675 32.427-46.421 45.525-70.955 57.856-108.245 14.464-43.733 19.499-75.691 19.584-124.331 0.043-46.805-4.651-78.379-18.475-123.733-6.571-21.589-7.467-33.109-3.243-42.027 6.827-14.379 29.355-25.6 48.597-24.192 21.888 1.579 30.251 14.976 45.099 72.448 10.624 41.003 13.397 65.451 13.397 116.651 0 38.059-0.555 49.024-3.712 69.12-11.093 71.211-33.792 131.584-69.547 185.173-24.405 36.565-33.493 44.715-50.901 45.653-9.088 0.469-11.648-0.128-19.84-4.693zM665.6 593.92c-11.52-6.485-17.792-12.331-23.381-21.803-3.712-6.315-4.224-8.875-3.627-18.347 0.683-10.24 1.451-12.117 11.051-25.984 21.973-31.659 30.208-55.637 32.768-95.147 1.664-25.557 4.907-34.219 15.403-41.301 14.848-9.984 40.192-9.984 55.040 0 13.44 9.045 17.621 28.971 13.525 64.256-5.205 44.843-21.675 87.296-46.848 120.661-12.16 16.171-20.437 21.632-33.92 22.357-9.301 0.469-11.776-0.085-20.011-4.693z" />
<glyph unicode="&#xe903;" glyph-name="account-circle" d="M468.48 850.774c-102.298-10.538-192.331-56.153-259.349-124.436l-0.064-0.066c-64.043-64.512-102.656-141.141-118.912-235.819-3.2-18.773-3.755-28.203-3.712-64.64 0.085-38.315 0.512-45.184 4.523-67.413 16.811-93.568 55.552-168.661 120.661-233.856 49.526-50.058 111.603-87.601 181.126-107.525l2.938-0.72c68.011-19.584 143.872-21.419 212.736-5.205 80.808 18.916 150.372 59.059 204.752 114.212l0.048 0.049c36.395 36.523 59.221 68.309 81.024 112.725 18.99 37.356 33.142 80.722 40.144 126.442l0.304 2.411c3.755 24.235 4.181 88.021 0.811 112.64-8.421 61.031-28.066 116.060-56.854 165.070l1.132-2.084c-84.821 143.787-246.528 225.621-411.307 208.213zM550.187 765.44c76.203-8.917 143.36-40.448 197.973-92.971 84.139-80.896 120.661-197.333 98.304-313.131-7.424-38.357-26.197-84.395-48.64-119.125l-9.643-14.933-15.787 14.251c-55.257 50.683-125.633 85.713-203.619 97.606l-2.162 0.271c-26.837 4.011-82.389 4.011-109.227 0-80.083-12.176-150.407-47.154-205.946-98.014l0.293 0.264-15.659-14.165-8.619 13.184c-25.189 37.764-43.412 82.397-51.677 130.436l-0.291 2.044c-4.949 27.819-5.333 80.341-0.768 106.709 6.699 38.955 15.317 66.304 30.976 98.133 52.437 106.923 152.448 176.768 272.171 190.123 9.858 0.99 21.306 1.554 32.886 1.554 13.895 0 27.6-0.813 41.070-2.393l-1.636 0.156zM484.608 722.731c-48.128-7.509-94.507-38.955-118.997-80.725-15.115-24.93-24.060-55.058-24.060-87.276 0-71.241 43.737-132.266 105.825-157.688l1.136-0.412c18.816-7.796 40.667-12.323 63.576-12.323 71.177 0 132.146 43.702 157.538 105.738l0.411 1.135c7.818 18.775 12.358 40.585 12.358 63.455 0 22.831-4.525 44.604-12.726 64.473l0.411-1.124c-22.511 55.302-71.795 95.49-131.313 104.752l-0.954 0.122c-7.884 1.385-16.962 2.177-26.225 2.177-9.532 0-18.868-0.838-27.939-2.446l0.959 0.141zM534.315 636.886c32.053-9.17 56.102-35.688 61.542-68.492l0.068-0.5c4.267-27.861-4.011-53.035-24.064-73.131-17.109-17.195-36.523-25.429-59.861-25.429-21.973 0-41.045 7.595-57.472 22.827-56.747 52.736-19.797 147.627 57.472 147.627 6.101 0 16.128-1.323 22.315-2.901zM542.379 254.208c36.267-3.968 66.475-12.501 98.475-27.861 29.909-14.336 61.44-36.267 80.768-56.149l7.339-7.552-11.605-8.619c-16.643-12.615-35.467-24.157-55.392-33.777l-1.995-0.868c-43.234-21.463-94.153-34.022-148.005-34.022-54.023 0-105.095 12.639-150.419 35.121l1.975-0.886c-19.157 9.259-50.773 28.885-63.787 39.552l-4.907 4.053 14.293 13.184c19.822 18.456 42.514 34.21 67.254 46.45l1.652 0.739c53.163 26.539 108.032 36.779 164.352 30.635z" />
<glyph unicode="&#xe904;" glyph-name="account-square" d="M154.197 808.235c-9.351-2.542-16.968-8.642-21.456-16.719l-0.090-0.177-3.797-7.125v-715.093l4.267-7.595c4.693-8.405 12.544-14.507 21.973-17.109 8.533-2.389 705.28-2.389 713.813 0 9.493 2.619 17.237 8.778 21.88 16.932l0.093 0.177 4.267 7.595v715.093l-3.797 7.125c-4.523 8.405-11.477 13.739-22.187 16.981-11.307 3.371-704.128 3.285-714.965-0.085zM810.667 426.667v-298.667h-597.333v597.333h597.333v-298.667zM486.613 680.192c-26.645-5.012-50.080-16.225-69.573-32.094l0.282 0.222c-49.28-39.723-67.627-109.525-44.331-168.917 22.499-56.002 76.148-94.919 138.948-95.402h0.060c62.86 0.484 116.509 39.4 138.648 94.39l0.36 1.012c6.301 16.005 9.953 34.541 9.953 53.931s-3.653 37.926-10.307 54.959l0.354-1.028c-10.224 25.365-26.179 46.584-46.338 62.788l-0.297 0.231c-13.781 10.965-41.728 24.448-58.24 28.16-17.579 3.925-44.032 4.693-59.52 1.749zM526.677 595.072c44.544-9.344 63.701-65.109 34.859-101.547-7.686-9.544-17.777-16.858-29.359-21.058l-0.465-0.147c-8.917-2.645-30.507-2.645-39.424 0-12.047 4.347-22.138 11.661-29.724 21.077l-0.1 0.128c-8.587 10.82-13.776 24.675-13.776 39.742 0 22.47 11.542 42.245 29.020 53.719l0.243 0.15c8.747 5.632 22.613 9.813 33.195 10.027 2.816 0.043 9.813-0.896 15.531-2.091zM479.573 339.414c-37.716-4.142-72.090-14.956-103.126-31.263l1.58 0.756c-13.141-6.571-31.147-17.109-40.021-23.467-20.651-14.72-52.864-46.421-57.813-56.875-8.107-17.067-2.219-35.84 15.488-49.195 10.837-8.149 16.939-10.667 26.155-10.667 11.435-0.043 18.475 4.224 38.315 23.211 21.589 20.608 38.272 32.427 60.416 42.837 31.787 14.976 55.296 20.181 91.435 20.181s59.648-5.205 91.435-20.181c22.144-10.411 38.827-22.229 60.416-42.837 19.883-19.029 26.88-23.253 38.443-23.253 14.251 0 32.512 12.331 40.747 27.52 6.869 12.629 5.845 24.747-3.243 38.443-7.936 11.947-34.219 36.651-54.571 51.328-18.347 13.184-57.003 32.811-78.933 40.064-28.459 9.509-61.228 14.995-95.277 14.995-11.074 0-22.013-0.58-32.787-1.712l1.344 0.114z" />
<glyph unicode="&#xe905;" glyph-name="activity" d="M368 809.942c-9.177-3.814-16.405-10.779-20.466-19.516l-0.099-0.238c-2.091-4.224-30.208-78.123-62.464-164.267l-58.624-156.587h-74.496c-79.36 0-84.139-0.427-95.445-8.491-9.472-6.741-12.885-15.744-12.885-34.176 0-14.123 0.555-17.195 4.267-23.808 4.693-8.405 12.544-14.507 21.973-17.109 3.797-1.067 42.496-1.749 100.267-1.749 103.893 0 103.467-0.043 114.688 10.752 3.157 2.987 7.040 8.149 8.704 11.435 1.621 3.285 22.443 58.027 46.251 121.6 23.765 63.616 43.733 115.627 44.331 115.627s49.365-128.853 108.331-286.293c59.008-157.44 109.013-289.835 111.147-294.144 4.714-9.587 12.82-16.903 22.715-20.476l0.282-0.089c13.867-4.139 37.376 4.181 46.805 16.597 3.584 4.736 23.040 54.528 64.725 165.888l59.605 159.104h75.221c45.141 0 77.696 0.725 81.408 1.749 9.493 2.619 17.237 8.778 21.88 16.932l0.093 0.177c3.712 6.656 4.267 9.643 4.224 23.808-0.043 18.475-3.456 27.52-12.843 34.176-11.563 8.235-14.805 8.491-112.939 8.491-61.44 0-94.464-0.64-99.456-1.877-10.551-3.525-19.108-10.629-24.42-19.841l-0.113-0.213c-1.664-3.413-22.528-58.283-46.336-121.856-23.765-63.616-43.733-115.627-44.331-115.627s-49.323 128.853-108.288 286.293-109.056 289.536-111.317 293.504c-2.644 4.454-5.865 8.245-9.62 11.424l-0.065 0.054c-11.392 8.704-31.488 12.8-42.709 8.747z" />
<glyph unicode="&#xe906;" glyph-name="advertisement" d="M111.531 808.235c-9.351-2.542-16.968-8.642-21.456-16.719l-0.090-0.177-3.797-7.125v-715.093l4.267-7.595c4.693-8.405 12.544-14.507 21.973-17.109 8.533-2.389 790.613-2.389 799.147 0 9.493 2.619 17.237 8.778 21.88 16.932l0.093 0.177 4.267 7.595v715.093l-3.797 7.125c-4.523 8.405-11.477 13.739-22.187 16.981-11.307 3.371-789.461 3.285-800.299-0.085zM853.333 426.667v-298.667h-682.667v597.333h682.667v-298.667zM325.931 594.731c-9.385-3.457-16.939-10.030-21.57-18.438l-0.105-0.208c-4.224-8.107-88.832-262.613-91.008-273.707-4.608-23.381 9.856-40.704 38.613-46.379 22.656-4.437 38.571 7.595 46.891 35.413l2.176 7.253h123.477l2.176-7.253c8.32-27.819 24.235-39.851 46.891-35.413 28.757 5.675 43.221 22.997 38.613 46.379-2.005 10.155-86.656 265.387-90.496 272.896-5.087 9.012-13.067 15.886-22.657 19.444l-0.298 0.097c-11.349 3.371-61.653 3.285-72.704-0.085zM751.531 594.902c-9.351-2.542-16.968-8.642-21.456-16.719l-0.090-0.177c-3.413-6.4-3.84-10.069-4.352-36.352l-0.555-29.269-32.725-0.811c-28.16-0.725-34.645-1.408-46.421-4.949-41.461-13.147-73.432-45.245-86.15-85.857l-0.25-0.927c-5.76-18.517-5.76-53.163 0-71.68 13.117-41.864 45.432-74.179 86.363-87.043l0.933-0.253c12.459-3.883 14.549-4.011 75.093-4.011 60.501 0 62.507 0.085 69.12 3.669 8.324 3.916 14.526 11.178 16.931 20.006l0.051 0.218c2.475 7.637 2.688 23.467 2.261 149.333l-0.469 140.8-3.797 7.125c-2.391 4.254-5.427 7.848-9.021 10.784l-0.067 0.053c-11.264 8.064-30.763 10.624-45.397 6.059zM379.861 431.36l15.829-47.36h-66.005l16.469 49.536c9.088 27.221 16.811 48.512 17.195 47.36l16.512-49.536zM725.333 383.872v-42.837l-27.733 0.597c-26.539 0.512-28.075 0.768-35.584 5.163-24.917 14.677-29.227 46.805-8.917 67.115 10.539 10.496 18.048 12.501 47.915 12.629l24.32 0.128v-42.795z" />
<glyph unicode="&#xe907;" glyph-name="affiliate" d="M211.627 808.022c-18.555-4.861-34.691-13.371-48.321-24.776l0.193 0.158c-12.8-11.435-25.301-30.421-30.464-46.208-3.584-10.837-4.181-15.872-4.096-34.048 0.085-18.731 0.683-22.869 4.736-34.133 11.28-30.606 34.958-54.326 64.779-65.417l0.757-0.247c6.784-2.389 14.208-4.309 16.427-4.309 2.261 0 4.821-0.939 5.717-2.133 1.792-2.347 32.939-105.643 32.939-109.184 0-1.237-4.395-4.821-9.813-7.979-131.712-77.312-155.989-257.365-49.365-365.952 68.139-69.419 167.595-89.728 258.176-52.779 44.459 18.176 89.429 57.813 112.853 99.456 2.603 4.693 5.717 8.491 6.912 8.491 3.541 0 106.837-31.147 109.184-32.939 1.195-0.896 2.133-3.456 2.133-5.717 0-7.68 8.576-28.757 16.341-40.149 13.397-19.669 31.403-33.749 53.632-41.813 11.477-4.181 15.104-4.651 34.987-4.651 19.84 0 23.552 0.469 34.987 4.608 30.763 11.43 54.594 35.275 65.756 65.284l0.249 0.764c4.181 11.477 4.651 15.104 4.651 34.987 0 19.84-0.469 23.552-4.608 34.987-6.795 17.548-17.012 32.44-29.924 44.479l-0.070 0.065c-19.088 16.23-43.815 26.35-70.884 27.090l-0.156 0.003c-24.875 0-53.205-11.051-71.936-27.989l-10.496-9.472-110.208 33.237 0.427 19.84c1.024 45.483-11.861 92.8-35.157 129.323l-5.888 9.259 194.347 194.304 8.363-3.029c6.4-2.347 13.568-3.072 30.549-3.072 19.883 0 23.509 0.469 34.987 4.608 30.763 11.43 54.594 35.275 65.756 65.284l0.249 0.764c4.181 11.477 4.651 15.104 4.651 34.987 0 19.84-0.469 23.552-4.608 34.987-6.795 17.548-17.012 32.44-29.924 44.479l-0.070 0.065c-19.088 16.23-43.815 26.35-70.884 27.090l-0.156 0.003c-24.363 0-52.992-10.965-71.168-27.221-12.8-11.435-25.301-30.421-30.464-46.208-3.584-10.837-4.181-15.829-4.053-34.048 0.085-15.915 0.853-23.467 3.115-29.696l3.029-8.363-194.304-194.304-12.971 7.893c-36.565 22.187-86.656 34.859-130.731 33.067l-14.592-0.597-16.64 55.381-16.64 55.339 7.381 7.893c10.965 11.733 19.157 24.875 24.363 39.253 4.181 11.477 4.651 15.104 4.651 34.987 0 19.84-0.469 23.552-4.608 34.987-15.502 41.981-55.174 71.372-101.711 71.372-7.92 0-15.641-0.851-23.077-2.467l0.714 0.13zM401.28 421.76c41.387-10.709 77.952-41.771 96.981-82.389 10.069-21.547 12.885-35.499 12.672-63.744-0.128-20.608-0.768-25.941-4.693-38.912-15.123-51.253-55.201-90.597-105.815-104.414l-1.065-0.248c-15.659-4.352-57.728-4.352-73.387 0-43.464 11.993-78.481 41.459-97.647 80.171l-0.401 0.896c-10.539 20.992-13.397 34.731-13.397 64.213s2.859 43.221 13.397 64.213c22.571 45.099 63.573 75.819 111.232 83.371 14.848 2.347 47.104 0.725 62.123-3.157z" />
<glyph unicode="&#xe908;" glyph-name="airplay" d="M111.531 808.235c-9.351-2.542-16.968-8.642-21.456-16.719l-0.090-0.177-3.797-7.125-0.427-311.211c-0.299-205.269 0.128-313.387 1.237-317.611 2.562-9.627 8.77-17.49 17.017-22.179l0.177-0.093 7.595-4.267 54.955-0.512c34.645-0.341 57.429 0.128 61.611 1.28 9.737 2.504 17.703 8.743 22.435 17.060l0.093 0.177c3.712 6.656 4.267 9.643 4.224 23.808-0.043 13.355-0.725 17.451-3.797 23.339-8.021 15.189-19.883 19.328-55.296 19.328h-25.344v512h682.667v-512h-25.344c-35.371 0-47.189-4.139-55.339-19.328-3.157-5.931-3.797-9.856-3.797-23.339 0-14.123 0.555-17.195 4.267-23.808 4.693-8.405 12.544-14.507 21.973-17.109 8.149-2.261 108.331-2.261 116.48 0 9.493 2.619 17.237 8.778 21.88 16.932l0.093 0.177 4.267 7.595v629.76l-3.797 7.125c-4.523 8.405-11.477 13.739-22.187 16.981-11.307 3.371-789.461 3.285-800.299-0.085zM495.787 382.891c-3.796-2.181-7.079-4.567-10.082-7.259l0.055 0.048c-7.296-6.656-181.973-269.227-184.96-278.016-1.707-5.035-2.304-11.136-1.707-18.347 1.451-18.219 10.88-30.507 26.667-34.901 3.968-1.109 70.357-1.749 184.661-1.749 200.533 0 187.435-0.853 202.752 12.928 4.565 4.139 9.557 10.112 11.093 13.312 3.669 7.723 3.456 20.736-0.469 29.355-1.707 3.797-43.051 66.816-91.861 139.947-92.331 138.453-92.075 138.069-108.373 144.853-8.064 3.371-21.205 3.285-27.776-0.171zM558.080 195.414l44.373-66.56-45.227-0.469c-24.875-0.256-65.579-0.256-90.453 0l-45.227 0.469 44.672 67.029c24.576 36.864 45.312 66.816 46.080 66.56s21.376-30.421 45.781-67.029z" />
<glyph unicode="&#xe909;" glyph-name="alarm" d="M197.12 808.704c-9.813-5.077-105.259-100.907-110.080-110.549-7.552-15.061-3.755-30.592 11.051-45.397s30.336-18.603 45.397-11.051c10.411 5.205 105.6 100.395 110.805 110.805 7.552 15.061 3.755 30.592-11.051 45.397-14.507 14.507-31.317 18.432-46.123 10.795zM794.709 808.747c-8.789-4.651-20.48-16.555-25.088-25.557-2.294-4.439-3.639-9.69-3.639-15.255 0-5.631 1.377-10.94 3.813-15.609l-0.089 0.187c5.205-10.411 100.395-105.6 110.805-110.805 15.061-7.552 30.592-3.755 45.397 11.051s18.603 30.336 11.051 45.397c-5.035 10.112-100.352 105.6-110.421 110.635-4.653 2.21-10.11 3.501-15.869 3.501-5.794 0-11.283-1.307-16.189-3.641l0.228 0.098zM483.84 766.976c-56.064-5.803-95.957-16.683-139.947-38.144-76.952-37.684-137.813-98.284-174.839-172.816l-0.99-2.203c-25.244-49.48-40.035-107.919-40.035-169.813s14.791-120.333 41.032-171.975l-0.997 2.162c18.915-38.867 42.944-72.1 71.728-100.529l0.037-0.036c69.395-70.1 165.642-113.506 272.026-113.506 61.25 0 119.139 14.388 170.472 39.968l-2.22-1.001c39.855 19.46 73.941 44.111 103.137 73.611l0.031 0.032c69.548 69.326 112.58 165.218 112.58 271.16 0 61.236-14.377 119.114-39.939 170.444l1.002-2.223c-55.464 112.054-160.95 192.081-286.459 211.314l-2.138 0.27c-17.451 2.645-70.741 4.693-84.48 3.285zM559.019 678.486c127.872-19.328 229.931-123.179 248.405-252.672 2.816-19.755 2.816-63.872 0-83.627-18.645-130.859-119.381-232.277-251.904-253.696-17.621-2.816-69.419-2.816-87.040 0-132.565 21.419-233.173 122.709-251.904 253.696-2.816 19.755-2.816 65.792 0.043 84.48 16.725 110.037 90.581 200.619 193.835 237.781 26.88 9.685 46.72 13.867 81.92 17.237 11.648 1.109 50.603-0.768 66.645-3.2zM495.531 594.902c-9.351-2.542-16.968-8.642-21.456-16.719l-0.090-0.177-3.797-7.125-0.469-119.125c-0.299-77.397 0.128-121.387 1.28-125.611 2.537-9.663 8.75-17.561 17.018-22.265l0.177-0.093 7.595-4.267 76.373-0.512c48.939-0.299 78.72 0.171 82.944 1.28 9.692 2.549 17.617 8.776 22.35 17.060l0.093 0.177c3.712 6.656 4.267 9.643 4.224 23.808-0.043 18.475-3.456 27.52-12.843 34.176-10.581 7.552-18.005 8.491-67.541 8.491h-46.592l-0.469 93.44c-0.512 92.885-0.555 93.483-4.309 100.565-2.391 4.254-5.427 7.848-9.021 10.784l-0.067 0.053c-11.264 8.064-30.763 10.624-45.397 6.059z" />
<glyph unicode="&#xe90a;" glyph-name="alarm-warning" d="M495.531 850.902c-9.351-2.542-16.968-8.642-21.456-16.719l-0.090-0.177c-3.499-6.528-3.84-9.856-4.352-40.619-0.341-20.267 0.171-36.139 1.28-40.277 4.565-17.024 16.768-26.112 36.651-27.392 20.693-1.323 34.261 4.651 41.984 18.475 4.181 7.467 4.267 8.277 4.267 45.141 0 35.541-0.213 37.931-3.797 44.672-2.391 4.254-5.427 7.848-9.021 10.784l-0.067 0.053c-11.264 8.064-30.763 10.624-45.397 6.059zM154.709 723.414c-8.789-4.651-20.48-16.555-25.088-25.557-2.294-4.439-3.639-9.69-3.639-15.255 0-5.631 1.377-10.94 3.813-15.609l-0.089 0.187c5.077-10.112 58.027-63.061 68.139-68.139 15.019-7.552 30.592-3.755 45.397 11.051s18.603 30.379 11.051 45.397c-4.949 9.813-58.027 63.061-67.755 67.925-4.661 2.243-10.135 3.553-15.915 3.553s-11.253-1.31-16.14-3.65l0.225 0.097zM837.12 723.371c-9.557-4.992-62.677-58.453-67.413-67.883-7.552-15.019-3.755-30.592 11.051-45.397s30.379-18.603 45.397-11.051c10.112 5.077 63.061 58.027 68.139 68.139 7.552 15.019 3.755 30.592-11.051 45.397-14.507 14.507-31.317 18.432-46.123 10.795zM478.165 680.832c-102.528-9.899-196.053-67.285-253.568-155.563-20.565-31.531-39.125-77.056-46.805-114.816-6.571-32.213-7.125-46.336-7.125-187.264v-137.088l-10.411-1.963c-13.056-2.475-22.571-8.704-27.52-18.005-3.243-6.059-3.883-9.899-3.883-23.467 0-14.123 0.555-17.195 4.267-23.808 4.693-8.405 12.544-14.507 21.973-17.109 8.533-2.389 705.28-2.389 713.813 0 9.493 2.619 17.237 8.778 21.88 16.932l0.093 0.177c3.712 6.656 4.267 9.643 4.224 23.808-0.043 13.44-0.683 17.451-3.883 23.467-4.907 9.301-14.379 15.531-27.477 18.005l-10.411 1.963v137.088c0 85.12-0.683 143.317-1.792 153.643-7.634 66.189-32.639 125.404-70.287 174.397l0.612-0.829c-11.52 15.061-34.773 38.827-52.267 53.461-68.992 57.728-160.555 85.76-251.435 76.971zM536.064 595.67c62.428-5.607 117.479-33.379 158.014-75.28l0.066-0.069c40.241-40.163 66.809-94.014 72.124-153.974l0.068-0.949c0.853-9.003 1.579-75.691 1.621-148.224l0.043-131.84h-512l0.043 131.84c0.043 72.533 0.768 139.221 1.621 148.224 5.383 60.908 31.951 114.759 72.188 154.919l0.004 0.004c45.938 47.268 110.117 76.596 181.147 76.596 8.826 0 17.546-0.453 26.138-1.336l-1.077 0.090zM486.4 552.79c-69.931-7.893-133.931-53.163-165.291-116.949-12.54-24.53-20.493-53.308-21.955-83.788l-0.018-0.479c-1.323-26.923 3.499-39.509 18.219-47.616 8.789-4.864 27.776-6.699 38.656-3.797 19.285 5.248 25.771 15.488 28.117 44.459 2.731 33.792 11.648 57.387 29.568 78.293 25.173 29.355 53.376 43.136 94.72 46.208 26.496 1.963 34.304 5.803 42.155 20.693 4.864 9.173 4.48 35.883-0.597 45.525-8.96 16.981-26.112 21.675-63.573 17.451z" />
<glyph unicode="&#xe90b;" glyph-name="album" d="M472.747 851.414c-72.777-7.153-138.707-31.396-195.334-68.631l1.627 1.005c-26.097-16.873-48.76-35.564-69.059-56.554l-0.103-0.107c-76.764-76.183-124.283-181.739-124.283-298.394 0-5.528 0.107-11.030 0.318-16.506l-0.024 0.788c3.029-90.411 31.531-171.008 86.187-244.053 16.939-22.613 54.272-60.757 75.392-77.099 61.525-47.531 127.445-75.819 204.8-87.893 27.605-4.309 91.861-4.309 119.467 0 95.488 14.933 175.104 54.912 241.579 121.387s106.453 146.091 121.387 241.579c4.309 27.605 4.309 91.861 0 119.467-12.075 77.397-40.448 143.445-87.893 204.8-14.379 18.56-51.541 55.723-70.272 70.229-88.192 68.224-194.304 99.669-303.787 89.984zM543.317 766.251c80.56-7.432 151.864-42.097 205.726-94.577l-0.073 0.070c64.183-62 104.035-148.833 104.035-244.973 0-54.378-12.749-105.778-35.422-151.375l0.891 1.979c-18.642-38.173-42.775-70.691-71.813-98.063l-0.166-0.155c-24.593-23.856-53.119-43.843-84.478-58.861l-1.922-0.829c-43.256-21.499-94.207-34.080-148.096-34.080s-104.84 12.581-150.075 34.966l1.979-0.886c-45.384 21.996-83.54 52.209-113.979 89.035l-0.453 0.565c-85.291 101.931-102.699 247.381-43.989 366.933 56.012 113.512 170.416 190.5 302.933 191.785l0.171 0.001c8.917 0.085 24.533-0.597 34.731-1.536zM484.608 594.731c-48.128-7.509-94.507-38.955-118.997-80.725-15.115-24.93-24.060-55.058-24.060-87.276 0-71.241 43.737-132.266 105.825-157.688l1.136-0.412c18.816-7.796 40.667-12.323 63.576-12.323 71.177 0 132.146 43.702 157.538 105.738l0.411 1.135c7.818 18.775 12.358 40.585 12.358 63.455 0 22.831-4.525 44.604-12.726 64.473l0.411-1.124c-22.511 55.302-71.795 95.49-131.313 104.752l-0.954 0.122c-7.884 1.385-16.962 2.177-26.225 2.177-9.532 0-18.868-0.838-27.939-2.446l0.959 0.141zM534.315 508.886c32.053-9.17 56.102-35.688 61.542-68.492l0.068-0.5c4.267-27.861-4.011-53.035-24.064-73.131-17.109-17.195-36.523-25.429-59.861-25.429-21.973 0-41.045 7.595-57.472 22.827-56.747 52.736-19.797 147.627 57.472 147.627 6.101 0 16.128-1.323 22.315-2.901z" />
<glyph unicode="&#xe90c;" glyph-name="alien" d="M483.84 852.267c-53.035-5.547-88.533-15.403-131.413-36.48-38.874-18.911-72.026-43.296-100.058-72.617l-0.123-0.13c-61.056-62.165-96-141.013-102.059-230.144-1.579-23.68-1.536-24.064 4.309-51.371 22.443-104.405 65.621-220.117 112.64-302.080 28.032-48.811 53.035-82.091 87.808-116.779 34.603-34.56 60.117-52.736 94.72-67.584 50.944-21.803 73.216-21.973 122.923-0.768 54.101 23.125 105.899 68.523 150.4 131.925 62.677 89.216 118.315 224.085 146.517 355.285 5.845 27.307 5.888 27.691 4.309 51.371-6.059 89.131-40.96 167.808-102.059 230.144-26.401 27.544-57.121 50.679-91.123 68.375l-1.933 0.915c-32.448 17.254-70.149 30.098-110.012 36.463l-2.074 0.273c-17.536 2.645-69.248 4.651-82.773 3.2zM557.781 763.776c101.931-17.92 182.528-86.443 216.747-184.363 7.808-22.315 13.952-56.021 13.952-76.373-0.043-20.224-14.72-79.829-33.579-136.107-50.731-151.339-123.093-262.869-197.931-305.067-31.317-17.664-45.568-20.181-66.048-11.691-70.443 29.099-134.357 107.008-188.544 229.803-32.427 73.6-66.731 188.075-66.816 223.061-0.043 20.309 6.101 54.059 13.909 76.373 37.291 106.539 129.664 178.133 242.048 187.563 13.227 1.109 52.523-0.768 66.261-3.2zM343.851 455.51c-16.911-2.568-30.947-12.969-38.477-27.32l-0.137-0.286c-5.205-10.112-6.272-30.123-2.304-42.411 7.381-22.699 22.784-45.483 45.568-67.371 16.768-16.085 30.976-26.112 48.939-34.475 10.965-5.12 15.36-6.187 27.989-6.827 14.165-0.725 15.616-0.469 25.984 4.651 23.253 11.435 33.579 34.176 27.435 60.501-8.832 37.803-50.304 85.163-92.288 105.387-14.976 7.211-29.013 9.899-42.709 8.149zM661.333 455.296c-43.605-5.589-108.8-70.4-117.077-116.437-4.48-24.747 6.272-46.549 28.331-57.387 10.368-5.12 11.819-5.376 25.984-4.651 12.629 0.64 17.024 1.707 27.989 6.827 33.749 15.744 68.864 49.152 85.76 81.579 9.344 17.963 11.819 27.605 10.923 42.453-1.92 32.725-27.136 52.096-61.909 47.616z" />
<glyph unicode="&#xe90d;" glyph-name="align-bottom" d="M196.864 850.902c-9.351-2.542-16.968-8.642-21.456-16.719l-0.090-0.177-3.797-7.125-0.427-311.211c-0.299-205.269 0.128-313.387 1.237-317.611 2.562-9.627 8.77-17.49 17.017-22.179l0.177-0.093 7.595-4.267 119.125-0.469c77.397-0.299 121.387 0.128 125.611 1.28 9.663 2.537 17.561 8.75 22.265 17.018l0.093 0.177 4.267 7.595v629.76l-3.797 7.125c-4.523 8.405-11.477 13.739-22.187 16.981-11.136 3.328-234.923 3.243-245.632-0.085zM384 512v-256h-128v512h128v-256zM580.864 680.235c-9.351-2.542-16.968-8.642-21.456-16.719l-0.090-0.177-3.797-7.125-0.469-225.877c-0.299-148.437 0.171-228.053 1.28-232.277 2.603-9.643 8.704-17.493 17.195-22.272l7.595-4.267 119.125-0.469c77.397-0.299 121.387 0.128 125.611 1.28 9.663 2.537 17.561 8.75 22.265 17.018l0.093 0.177 4.267 7.595v459.093l-3.797 7.125c-4.523 8.405-11.477 13.739-22.187 16.981-11.136 3.328-234.923 3.243-245.632-0.085zM768 426.667v-170.667h-128v341.333h128v-170.667zM154.197 82.902c-9.351-2.542-16.968-8.642-21.456-16.719l-0.090-0.177c-3.157-5.931-3.797-9.856-3.797-23.339 0-14.123 0.555-17.195 4.267-23.808 4.693-8.405 12.544-14.507 21.973-17.109 8.533-2.389 705.28-2.389 713.813 0 9.493 2.619 17.237 8.778 21.88 16.932l0.093 0.177c3.712 6.656 4.267 9.643 4.224 23.808-0.043 18.475-3.456 27.52-12.843 34.176-12.459 8.917 5.163 8.491-370.944 8.363-282.325-0.085-351.403-0.512-357.12-2.304z" />
<glyph unicode="&#xe90e;" glyph-name="align-center-horizontal" d="M495.531 850.902c-9.351-2.542-16.968-8.642-21.456-16.719l-0.090-0.177c-3.413-6.4-3.84-10.069-4.352-36.565l-0.597-29.44h-110.507c-118.016 0-119.723-0.128-131.456-8.491-3.661-2.989-6.697-6.583-8.991-10.651l-0.097-0.186-3.797-7.125v-245.76l4.267-7.595c4.693-8.405 12.544-14.507 21.973-17.109 3.84-1.067 48.213-1.749 117.547-1.749h111.36v-85.333h-153.344c-164.053 0-162.219 0.085-174.251-8.491-3.661-2.989-6.697-6.583-8.991-10.651l-0.097-0.186-3.797-7.125v-245.76l4.267-7.595c4.693-8.405 12.544-14.507 21.973-17.109 3.925-1.109 62.293-1.749 160.213-1.749h154.027v-26.027c0-14.336 0.811-28.8 1.749-32.213 4.565-16.427 16.896-25.472 36.48-26.709 20.693-1.323 34.261 4.651 41.984 18.475 4.011 7.125 4.309 9.387 4.864 37.035l0.597 29.44h153.856c97.792 0 156.117 0.64 160.043 1.749 9.493 2.619 17.237 8.778 21.88 16.932l0.093 0.177 4.267 7.595v245.76l-3.797 7.125c-2.391 4.254-5.427 7.848-9.021 10.784l-0.067 0.053c-12.032 8.576-10.197 8.491-174.251 8.491h-153.344v85.333h111.36c69.333 0 113.707 0.683 117.547 1.749 9.493 2.619 17.237 8.778 21.88 16.932l0.093 0.177 4.267 7.595v245.76l-3.797 7.125c-2.391 4.254-5.427 7.848-9.021 10.784l-0.067 0.053c-11.733 8.363-13.44 8.491-131.413 8.491h-110.507l-0.64 29.44c-0.725 32.811-2.688 39.765-13.44 47.403-11.264 8.064-30.763 10.624-45.397 6.059zM725.333 618.667v-64h-426.667v128h426.667v-64zM810.667 234.667v-64h-597.333v128h597.333v-64z" />
<glyph unicode="&#xe90f;" glyph-name="align-center-vertical" d="M196.864 808.235c-9.351-2.542-16.968-8.642-21.456-16.719l-0.090-0.177-3.797-7.125-0.939-314.88h-25.259c-35.371 0-47.189-4.139-55.339-19.328-3.157-5.931-3.797-9.856-3.797-23.339 0-14.123 0.555-17.195 4.267-23.808 4.693-8.405 12.544-14.507 21.973-17.109 3.413-0.939 17.877-1.749 32.213-1.749h26.027v-154.027c0-97.92 0.64-156.288 1.749-160.213 2.619-9.493 8.778-17.237 16.932-21.88l0.177-0.093 7.595-4.267 119.125-0.469c77.397-0.299 121.387 0.128 125.611 1.28 9.663 2.537 17.561 8.75 22.265 17.018l0.093 0.177 4.267 7.595 0.939 314.88h85.163l0.939-229.547 4.267-7.595c4.693-8.405 12.544-14.507 21.973-17.109 8.405-2.347 236.075-2.347 244.48 0 9.493 2.619 17.237 8.778 21.88 16.932l0.093 0.177 4.267 7.595 0.469 114.773 0.512 114.773h25.941c14.293 0 28.757 0.811 32.171 1.749 9.493 2.619 17.237 8.778 21.88 16.932l0.093 0.177c3.712 6.656 4.267 9.643 4.224 23.808-0.043 13.355-0.725 17.451-3.797 23.339-8.021 15.189-19.883 19.328-55.253 19.328h-25.259l-0.512 114.773-0.469 114.773-3.797 7.125c-4.523 8.405-11.477 13.739-22.187 16.981-11.52 3.456-233.472 3.456-244.992 0-10.709-3.243-17.664-8.576-22.187-16.981l-3.797-7.125-0.939-229.547h-85.163l-0.939 314.88-3.797 7.125c-4.523 8.405-11.477 13.739-22.187 16.981-11.136 3.328-234.923 3.243-245.632-0.085zM384 426.667v-298.667h-128v597.333h128v-298.667zM768 426.667v-213.333h-128v426.667h128v-213.333z" />
<glyph unicode="&#xe910;" glyph-name="align-left" d="M111.531 808.235c-9.351-2.542-16.968-8.642-21.456-16.719l-0.090-0.177-3.797-7.125-0.427-353.877c-0.299-233.685 0.128-356.096 1.28-360.277 4.437-16.597 16.811-25.771 36.523-27.008 20.693-1.323 34.261 4.651 41.984 18.475l4.267 7.595v715.093l-3.797 7.125c-2.391 4.254-5.427 7.848-9.021 10.784l-0.067 0.053c-11.264 8.064-30.763 10.624-45.397 6.059zM282.197 765.568c-9.351-2.542-16.968-8.642-21.456-16.719l-0.090-0.177-3.797-7.125v-245.76l4.267-7.595c4.693-8.405 12.544-14.507 21.973-17.109 8.491-2.389 449.323-2.389 457.813 0 9.493 2.619 17.237 8.778 21.88 16.932l0.093 0.177 4.267 7.595v245.76l-3.797 7.125c-4.523 8.405-11.477 13.739-22.187 16.981-11.264 3.371-448.171 3.285-458.965-0.085zM682.667 618.667v-64h-341.333v128h341.333v-64zM282.197 381.568c-9.351-2.542-16.968-8.642-21.456-16.719l-0.090-0.177-3.797-7.125v-245.76l4.267-7.595c4.693-8.405 12.544-14.507 21.973-17.109 8.533-2.389 619.947-2.389 628.48 0 9.493 2.619 17.237 8.778 21.88 16.932l0.093 0.177 4.267 7.595v245.76l-3.797 7.125c-4.523 8.405-11.477 13.739-22.187 16.981-11.264 3.371-618.795 3.285-629.632-0.085zM853.333 234.667v-64h-512v128h512v-64z" />
<glyph unicode="&#xe911;" glyph-name="align-right" d="M879.531 808.235c-9.351-2.542-16.968-8.642-21.456-16.719l-0.090-0.177-3.797-7.125-0.427-353.877c-0.299-233.685 0.128-356.096 1.28-360.277 4.437-16.597 16.811-25.771 36.523-27.008 20.693-1.323 34.261 4.651 41.984 18.475l4.267 7.595v715.093l-3.797 7.125c-2.391 4.254-5.427 7.848-9.021 10.784l-0.067 0.053c-11.264 8.064-30.763 10.624-45.397 6.059zM282.197 765.568c-9.351-2.542-16.968-8.642-21.456-16.719l-0.090-0.177-3.797-7.125v-245.76l4.267-7.595c4.693-8.405 12.544-14.507 21.973-17.109 8.491-2.389 449.323-2.389 457.813 0 9.493 2.619 17.237 8.778 21.88 16.932l0.093 0.177 4.267 7.595v245.76l-3.797 7.125c-4.523 8.405-11.477 13.739-22.187 16.981-11.264 3.371-448.171 3.285-458.965-0.085zM682.667 618.667v-64h-341.333v128h341.333v-64zM111.531 381.568c-9.351-2.542-16.968-8.642-21.456-16.719l-0.090-0.177-3.797-7.125v-245.76l4.267-7.595c4.693-8.405 12.544-14.507 21.973-17.109 8.533-2.389 619.947-2.389 628.48 0 9.493 2.619 17.237 8.778 21.88 16.932l0.093 0.177 4.267 7.595v245.76l-3.797 7.125c-4.523 8.405-11.477 13.739-22.187 16.981-11.264 3.371-618.795 3.285-629.632-0.085zM682.667 234.667v-64h-512v128h512v-64z" />
<glyph unicode="&#xe912;" glyph-name="align-top" d="M154.197 850.902c-9.351-2.542-16.968-8.642-21.456-16.719l-0.090-0.177c-3.157-5.931-3.797-9.856-3.797-23.339 0-14.123 0.555-17.195 4.267-23.808 4.693-8.405 12.544-14.507 21.973-17.109 8.533-2.389 705.28-2.389 713.813 0 9.493 2.619 17.237 8.778 21.88 16.932l0.093 0.177c3.712 6.656 4.267 9.643 4.224 23.808-0.043 18.475-3.456 27.52-12.843 34.176-12.459 8.917 5.163 8.491-370.944 8.363-282.325-0.085-351.403-0.512-357.12-2.304zM196.864 680.235c-9.351-2.542-16.968-8.642-21.456-16.719l-0.090-0.177-3.797-7.125-0.427-311.211c-0.299-205.269 0.128-313.387 1.237-317.611 2.562-9.627 8.77-17.49 17.017-22.179l0.177-0.093 7.595-4.267 119.125-0.469c77.397-0.299 121.387 0.128 125.611 1.28 9.663 2.537 17.561 8.75 22.265 17.018l0.093 0.177 4.267 7.595v629.76l-3.797 7.125c-4.523 8.405-11.477 13.739-22.187 16.981-11.136 3.328-234.923 3.243-245.632-0.085zM580.864 680.235c-9.351-2.542-16.968-8.642-21.456-16.719l-0.090-0.177-3.797-7.125-0.469-225.877c-0.299-148.437 0.171-228.053 1.28-232.277 2.603-9.643 8.704-17.493 17.195-22.272l7.595-4.267 119.125-0.469c77.397-0.299 121.387 0.128 125.611 1.28 9.663 2.537 17.561 8.75 22.265 17.018l0.093 0.177 4.267 7.595v459.093l-3.797 7.125c-4.523 8.405-11.477 13.739-22.187 16.981-11.136 3.328-234.923 3.243-245.632-0.085zM384 341.334v-256h-128v512h128v-256zM768 426.667v-170.667h-128v341.333h128v-170.667z" />
<glyph unicode="&#xe913;" glyph-name="american-football" d="M648.533 852.182c-75.691-5.291-142.507-21.376-206.507-49.621-142.464-62.891-257.109-181.419-313.984-324.608-13.952-34.278-25.725-74.687-33.375-116.535l-0.587-3.871c-6.613-39.893-7.723-53.205-7.765-93.013-0.043-35.627 0.384-42.112 3.84-58.027 22.741-103.893 97.963-179.115 201.685-201.643 15.829-3.456 22.571-3.883 58.027-3.883 22.656 0.043 47.147 0.981 56.32 2.219 48.043 6.4 80.597 13.525 118.955 25.984 69.291 22.443 125.952 52.693 186.539 99.456 23.979 18.517 80.768 75.52 99.669 100.053 45.355 58.88 76.032 116.565 98.133 184.832 19.84 61.099 28.331 114.304 28.245 176.981-0.043 33.408-0.555 40.747-3.925 56.32-17.621 81.408-66.688 144.512-141.056 181.333-39.509 19.541-89.472 27.904-144.213 24.021zM647.637 750.080c18.421-73.177 66.416-132.659 130.216-166.068l1.411-0.673c19.627-9.984 42.539-18.389 59.563-21.973 5.632-1.152 10.88-2.688 11.648-3.371 1.877-1.579-1.323-28.971-6.699-57.643-38.741-207.061-206.549-371.712-415.147-407.424-13.44-2.304-29.867-4.395-36.437-4.608l-11.989-0.427-3.797 15.36c-18.389 74.795-67.413 135.125-138.325 170.24-15.528 7.608-33.628 14.022-52.532 18.321l-1.697 0.325c-8.277 1.579-11.477 2.901-11.477 4.821 0 1.451 1.152 12.117 2.603 23.723 21.035 169.899 128.341 319.616 283.264 395.221 46.090 23.044 99.618 39.849 156.047 47.532l2.673 0.298c27.819 3.669 26.283 4.352 30.677-13.653zM758.613 749.227c31.573-15.445 58.411-41.429 74.325-72.021 7.467-14.379 12.373-27.008 11.051-28.331s-22.613 7.979-35.328 15.445c-28.305 17.388-50.715 41.908-65.087 71.098l-0.449 1.009c-2.503 4.878-5.345 11.261-7.902 17.787l-0.546 1.583c-1.024 3.584-0.725 3.883 2.859 2.901 2.219-0.597 11.691-4.864 21.077-9.472zM623.787 595.328c-3.755-1.963-20.821-17.408-37.888-34.304l-31.104-30.763-10.411 9.685c-13.397 12.373-21.376 16.427-32.384 16.427-10.709 0-19.883-4.437-29.909-14.464-14.592-14.592-18.603-30.464-11.264-44.8 1.963-3.883 7.936-11.733 13.269-17.536l9.728-10.496-24.235-24.235-10.496 9.728c-13.44 12.416-21.376 16.469-32.427 16.469-10.709 0-19.883-4.437-29.909-14.464-14.592-14.592-18.603-30.464-11.264-44.8 1.963-3.883 7.893-11.733 13.227-17.493l9.685-10.411-30.763-31.104c-32.939-33.323-38.4-41.003-38.4-54.101 0-20.352 24.405-44.757 44.757-44.757 13.099 0 20.779 5.461 54.101 38.4l31.104 30.763 10.411-9.685c13.141-12.117 22.144-16.811 32.384-16.811 20.352 0 44.757 24.405 44.757 44.757 0 10.24-4.693 19.243-16.853 32.427l-9.728 10.496 24.235 24.235 10.496-9.728c13.184-12.16 22.187-16.853 32.427-16.853 20.352 0 44.757 24.405 44.757 44.757 0 10.24-4.693 19.243-16.811 32.384l-9.685 10.411 30.763 31.104c18.432 18.603 32.256 34.091 34.56 38.613 7.595 14.976 3.797 30.592-11.008 45.397-14.549 14.549-31.36 18.475-46.123 10.752zM203.947 194.56c31.573-15.445 58.411-41.429 74.325-72.021 7.467-14.379 12.373-27.008 11.051-28.331s-22.613 7.979-35.328 15.445c-28.305 17.388-50.715 41.908-65.087 71.098l-0.449 1.009c-2.503 4.878-5.345 11.261-7.902 17.787l-0.546 1.583c-1.024 3.584-0.725 3.883 2.859 2.901 2.219-0.597 11.691-4.864 21.077-9.472z" />
<glyph unicode="&#xe914;" glyph-name="anchor" d="M484.608 850.731c-69.419-10.837-125.483-64.981-139.733-135.083-16.341-80.128 28.715-162.304 104.832-191.317 7.509-2.859 15.019-5.632 16.64-6.144 2.816-0.896 2.987-12.672 2.987-215.211v-214.229h-4.352c-8.32 0-39.211 7.211-59.648 13.867-49.83 16.634-92.568 42.837-127.957 76.665l0.128-0.121c-39.938 38.051-70.714 85.355-88.918 138.494l-0.725 2.434c-6.101 18.773-13.781 52.437-13.781 60.587 0 3.2 1.536 3.328 45.653 3.328 25.301 0 48.384 0.768 51.84 1.749 9.493 2.619 17.237 8.778 21.88 16.932l0.093 0.177c3.712 6.656 4.267 9.643 4.224 23.808-0.043 18.475-3.456 27.52-12.843 34.176-11.264 8.021-16.256 8.491-92.928 8.491s-81.664-0.469-92.928-8.491c-3.661-2.989-6.697-6.583-8.991-10.651l-0.097-0.186c-3.499-6.528-3.797-9.387-3.712-34.432 0.256-71.595 22.059-146.389 61.781-211.627 23.253-38.229 65.621-85.973 99.413-112.085 61.525-47.531 127.445-75.819 204.8-87.893 27.605-4.309 91.861-4.309 119.467 0 77.397 12.075 143.445 40.448 204.8 87.893 18.645 14.421 55.851 51.627 70.272 70.272 58.453 75.563 90.539 164.736 90.88 252.587 0.128 25.984-0.171 28.715-3.669 35.285-4.523 8.405-11.477 13.739-22.187 16.981-11.392 3.413-148.267 3.413-159.659 0-10.709-3.243-17.664-8.576-22.187-16.981-3.157-5.931-3.797-9.856-3.797-23.339 0-14.123 0.555-17.195 4.267-23.808 4.693-8.405 12.544-14.507 21.973-17.109 3.456-0.981 26.539-1.749 51.84-1.749 44.117 0 45.653-0.128 45.653-3.328 0-8.192-7.68-41.813-13.824-60.544-25.78-75.95-74.966-138.304-138.84-180.054l-1.32-0.81c-22.183-14.058-47.71-26.444-74.636-35.85l-2.633-0.801c-20.437-6.656-51.328-13.867-59.648-13.867h-4.352v214.229c0 202.539 0.171 214.315 2.987 215.211 54.272 17.28 92.459 51.584 112.384 100.992 7.818 18.775 12.358 40.585 12.358 63.455 0 22.831-4.525 44.604-12.726 64.473l0.411-1.124c-22.511 55.302-71.795 95.49-131.313 104.752l-0.954 0.122c-7.884 1.385-16.962 2.177-26.225 2.177-9.532 0-18.868-0.838-27.939-2.446l0.959 0.141zM534.315 764.886c36.434-10.454 62.645-43.475 62.645-82.618 0-13.507-3.121-26.286-8.682-37.654l0.224 0.507c-6.613-13.568-24.149-31.787-36.821-38.187-11.608-6.001-25.337-9.52-39.888-9.52-7.377 0-14.542 0.904-21.392 2.608l0.608-0.128c-29.227 7.595-53.717 31.829-61.227 60.459-1.84 6.615-2.898 14.212-2.898 22.055 0 47.152 38.224 85.376 85.376 85.376 7.844 0 15.44-1.058 22.655-3.038l-0.599 0.14z" />
<glyph unicode="&#xe915;" glyph-name="anchor-2" d="M494.080 852.267c-46.037-7.168-86.272-44.331-98.347-90.837-2.197-9.566-3.456-20.551-3.456-31.829s1.259-22.263 3.644-32.821l-0.188 0.992c8.629-31.712 28.355-57.865 54.653-74.616l0.515-0.306c5.845-3.755 12.373-7.296 14.507-7.851l3.925-0.981v-84.949h-60.288c-67.968 0-73.429-0.725-83.883-11.179-7.851-7.808-11.861-21.461-10.667-36.139 1.195-15.104 6.869-25.515 17.408-32.043l8.32-5.12 129.109-1.024v-274.944l-5.547 3.669c-12.677 7.748-27.425 15.1-42.809 21.193l-1.991 0.695c-16.384 5.589-34.261 8.704-60.672 10.496-26.411 1.835-42.624 5.504-60.203 13.611-39.040 18.005-70.187 57.771-80.384 102.485-1.877 9.127-3.407 20.243-4.254 31.549l-0.055 0.92c-1.152 14.805-2.475 22.016-5.12 27.179-12.757 25.003-61.227 25.216-74.965 0.341-12.117-21.931-2.859-84.395 19.413-130.816 15.787-32.896 50.517-73.216 79.317-91.989 35.755-23.381 83.157-38.4 121.216-38.485 35.285-0.085 65.451-13.824 86.613-39.424 18.645-22.571 27.307-45.056 28.885-74.923 0.469-8.917 1.963-19.712 3.285-24.021 4.821-15.36 18.944-23.765 39.936-23.765s35.115 8.405 39.936 23.765c1.323 4.309 2.859 15.488 3.413 24.875 1.707 29.995 10.027 51.627 28.203 73.6 21.589 26.027 51.755 39.808 87.168 39.893 38.059 0.085 85.461 15.104 121.216 38.485 28.8 18.773 63.531 59.093 79.317 91.989 22.187 46.293 31.488 108.971 19.413 130.859-10.581 19.157-43.819 24.661-65.024 10.795-10.069-6.613-13.525-15.403-15.104-38.485-0.768-10.923-2.56-24.96-4.011-31.147-8.661-37.376-30.933-71.467-59.691-91.349-24.533-16.939-44.8-23.424-81.152-25.941-26.411-1.792-44.288-4.907-60.672-10.496-17.375-6.788-32.123-14.14-46.108-22.625l1.308 0.737-5.547-3.669v274.944l129.109 1.024 8.32 5.12c10.539 6.528 16.213 16.939 17.408 32.043 1.195 14.677-2.816 28.331-10.667 36.139-10.453 10.453-15.915 11.179-83.883 11.179h-60.288v84.949l3.925 0.981c2.133 0.555 8.661 4.096 14.507 7.851 26.813 17.058 46.539 43.21 54.96 74.031l0.208 0.892c2.197 9.566 3.456 20.551 3.456 31.829s-1.259 22.263-3.644 32.821l0.188-0.992c-11.407 41.801-42.769 74.389-82.95 87.305l-0.89 0.247c-9.301 2.773-40.448 4.821-50.347 3.285zM523.563 765.355c14.336-6.016 22.485-18.944 22.485-35.755s-8.149-29.739-22.485-35.755c-15.957-6.656-34.517 1.493-42.453 18.688-1.987 5.135-3.138 11.078-3.138 17.29 0 5.584 0.93 10.95 2.644 15.952l-0.103-0.346c7.424 17.792 26.752 26.752 43.051 19.925z" />
<glyph unicode="&#xe916;" glyph-name="anticlockwise" d="M358.4 808.79c-69.931-7.893-133.931-53.163-165.291-116.949-7.426-14.841-13.714-32.129-17.977-50.198l-0.327-1.642c-2.475-10.709-3.072-24.192-3.669-82.56l-0.725-69.76-31.019 30.72c-17.579 17.365-34.133 32.256-38.187 34.347-14.976 7.552-31.232 3.712-45.781-10.837-14.805-14.805-18.603-30.379-11.051-45.397 2.517-4.992 25.387-29.355 68.053-72.491 35.328-35.712 65.664-67.072 67.456-69.76 4.352-6.528 23.296-15.019 33.451-15.019s29.099 8.491 33.451 15.019c1.792 2.688 32.128 34.048 67.456 69.76 42.667 43.136 65.536 67.499 68.053 72.491 7.552 15.019 3.755 30.592-11.051 45.397-14.549 14.549-30.805 18.389-45.781 10.837-4.053-2.091-20.736-17.067-38.443-34.56l-31.275-30.933 0.64 66.56c0.64 65.152 0.725 66.859 4.864 80.256 13.158 41.114 44.902 72.858 85.087 85.758l0.929 0.258c13.568 4.181 14.464 4.224 97.323 5.163 81.323 0.896 83.797 1.024 90.453 4.608 14.293 7.637 18.688 16.64 18.688 38.144 0 18.475-3.371 27.477-12.8 34.176-11.349 8.107-15.957 8.491-95.317 8.277-40.917-0.128-80.171-0.896-87.211-1.664zM452.864 552.235c-9.351-2.542-16.968-8.642-21.456-16.719l-0.090-0.177-3.797-7.125v-459.093l4.267-7.595c4.693-8.405 12.544-14.507 21.973-17.109 8.491-2.389 449.323-2.389 457.813 0 9.493 2.619 17.237 8.778 21.88 16.932l0.093 0.177 4.267 7.595v459.093l-3.797 7.125c-4.523 8.405-11.477 13.739-22.187 16.981-11.264 3.371-448.171 3.285-458.965-0.085zM853.333 298.667v-170.667h-341.333v341.333h341.333v-170.667z" />
<glyph unicode="&#xe917;" glyph-name="aperture" d="M472.747 851.499c-105.685-9.685-208.683-61.483-277.803-139.691-24.235-27.435-30.891-35.456-34.176-41.301-1.792-3.157-7.509-12.672-12.672-21.12-39.221-63.012-62.472-139.496-62.472-221.412 0-5.262 0.096-10.501 0.286-15.716l-0.022 0.754c1.105-45.846 9.66-89.352 24.496-129.829l-0.901 2.81c3.755-10.411 7.893-22.699 9.173-27.349 1.323-4.651 3.883-10.453 5.675-12.928 1.835-2.432 5.803-9.387 8.832-15.403 17.877-35.456 45.184-72.533 76.715-104.107 24.107-24.192 41.301-38.357 68.011-56.149 42.825-28.24 92.973-49.561 146.791-60.937l2.841-0.503c10.325-2.005 24.149-4.779 30.72-6.187 16.469-3.413 89.771-2.304 115.2 1.749 103.936 16.64 196.395 67.456 261.205 143.573 6.997 8.192 16.341 19.157 20.821 24.277 4.48 5.163 8.107 10.112 8.107 10.965s3.584 7.083 7.936 13.824c31.275 48.213 53.504 108.075 63.189 170.112 4.267 27.477 4.267 91.819 0 119.467-4.919 30.806-11.941 58.059-21.203 84.254l1.022-3.315c-3.755 10.411-7.851 22.613-9.131 27.179-1.682 5.527-3.887 10.336-6.638 14.771l0.152-0.264c-3.437 5.402-7.516 12.462-11.355 19.669l-0.933 1.92c-12.749 23.123-25.929 42.934-40.547 61.564l0.739-0.977c-14.379 18.56-51.541 55.723-70.272 70.229-55.808 43.179-119.125 71.979-185.003 84.181-12.373 2.261-25.941 4.821-30.123 5.675-9.771 2.005-67.627 2.133-88.661 0.213zM479.232 762.454c-1.365-2.091-20.779-35.712-43.136-74.667-22.4-38.955-42.453-72.747-44.629-75.093-2.133-2.347-5.547-8.107-7.595-12.8-4.267-9.899-47.957-86.187-49.323-86.187-0.469 0-18.731 30.933-40.533 68.693l-39.637 68.693 12.331 12.544c41.514 42.656 93.779 74.644 152.426 91.595l2.454 0.607c13.824 3.84 47.232 10.112 55.211 10.325 4.651 0.128 4.779-0.043 2.432-3.712zM598.187 756.864c63.155-17.029 117.202-49.815 159.548-93.921l0.111-0.116c12.928-13.483 32.341-36.779 32.341-38.784 0-0.597-65.664-1.067-145.92-1.024s-145.92 0.469-145.92 0.939c0 3.072 79.232 137.216 81.024 137.216 1.237 0 9.685-1.92 18.816-4.309zM247.808 491.52c22.955-39.893 42.624-75.008 43.648-78.080 1.067-3.029 4.181-8.405 6.997-11.947 4.779-5.973 49.707-82.688 49.707-84.821 0-0.512-35.883-0.768-79.744-0.512l-79.787 0.427-4.608 15.701c-9.003 30.72-12.288 55.851-12.288 94.379 0 49.323 5.973 81.963 23.125 125.995 6.059 15.488 7.125 17.237 9.003 14.507 1.195-1.707 20.949-35.755 43.947-75.648zM608.043 482.134l31.957-55.467-31.957-55.467-32-55.467h-128.085l-64 110.976 32 55.467 32.043 55.424h128.043l32-55.467zM839.936 521.088c14.507-49.365 16.853-108.16 6.443-162.133-5.538-25.657-12.663-47.977-21.646-69.323l0.952 2.55-4.053-9.045-43.605 75.605c-23.979 41.6-44.459 78.080-45.483 81.152-1.92 4.563-4.268 8.5-7.079 12.054l0.082-0.107c-4.779 5.973-49.707 82.688-49.707 84.821 0 0.512 35.883 0.768 79.744 0.512l79.787-0.427 4.565-15.659zM729.984 270.934l39.637-68.693-14.891-15.061c-54.016-54.656-128.469-91.392-201.643-99.456l-10.965-1.195 3.499 5.803c1.963 3.2 21.419 36.907 43.264 74.923s41.472 71.040 43.648 73.387c2.133 2.347 5.547 8.107 7.552 12.8 4.224 9.771 48 86.187 49.365 86.187 0.512 0 18.731-30.933 40.533-68.693zM525.653 229.376c0-3.029-79.275-137.216-81.024-137.216-4.864 0-36.352 8.96-51.883 14.763-45.531 17.131-84.467 42.268-116.926 74.002l0.062-0.061c-15.147 14.635-42.069 45.611-42.069 48.427 0 0.597 65.664 1.067 145.92 0.981 80.256-0.043 145.92-0.427 145.92-0.896z" />
<glyph unicode="&#xe918;" glyph-name="apps" d="M251.733 851.414c-62.677-7.851-121.557-51.2-148.437-109.397-11.193-23.641-17.728-51.362-17.728-80.609 0-37.366 10.667-72.24 29.121-101.744l-0.471 0.807c26.027-42.24 66.517-71.723 117.76-85.717l16.341-4.437 93.355-0.597c61.781-0.384 95.573 0.043 100.011 1.237 9.737 2.504 17.703 8.743 22.435 17.060l0.093 0.177 4.267 7.595 0.512 88.747c0.384 60.032-0.085 93.099-1.408 102.229-13.393 94.448-93.703 166.288-190.792 166.288-8.836 0-17.532-0.595-26.052-1.747l0.993 0.11zM721.067 851.414c-33.136-4.864-62.677-17.353-87.726-35.631l0.558 0.388c-39.913-29.198-67.885-72.672-76.427-122.77l-0.16-1.134c-2.176-12.373-2.645-31.275-2.645-102.4 0-53.205 0.683-89.643 1.749-93.44 2.619-9.493 8.778-17.237 16.932-21.88l0.177-0.093 7.595-4.267 194.56 0.043 16.341 4.523c41.728 11.435 71.68 29.909 99.883 61.483 27.051 30.336 44.16 73.173 46.251 115.84 5.888 119.296-97.536 214.272-217.088 199.339zM299.52 765.44c31.751-7.059 57.694-27.502 72.040-54.963l0.28-0.589c11.221-22.741 12.117-29.867 12.117-96.896l0.043-58.539-128.853 1.109-12.8 4.693c-41.949 15.444-71.327 55.064-71.327 101.546 0 7.689 0.804 15.189 2.332 22.423l-0.125-0.705c11.904 57.003 68.864 93.952 126.293 81.92zM768.853 765.44c31.751-7.059 57.694-27.502 72.040-54.963l0.28-0.589c15.872-32.256 16-64.683 0.341-96.341-12.544-24.686-33.549-43.559-59.113-53.047l-0.749-0.243-12.8-4.693-128.853-1.109 0.043 58.539c0 67.029 0.896 74.155 12.117 96.896 20.864 42.283 69.504 65.451 116.693 55.552zM251.733 382.080c-62.677-7.851-121.557-51.2-148.437-109.397-11.193-23.641-17.728-51.362-17.728-80.609 0-37.366 10.667-72.24 29.121-101.744l-0.471 0.807c26.027-42.283 66.773-71.936 117.76-85.632 14.549-3.925 19.541-4.395 45.355-4.395s30.805 0.469 45.355 4.395c71.979 19.371 121.301 68.651 141.269 141.141l4.48 16.341v97.28l0.043 97.28-3.797 7.125c-2.391 4.254-5.427 7.848-9.021 10.784l-0.067 0.053c-11.52 8.235-15.189 8.491-106.411 8.277-47.019-0.128-90.88-0.896-97.451-1.707zM580.864 381.568c-9.351-2.542-16.968-8.642-21.456-16.719l-0.090-0.177-3.797-7.125 0.043-97.28v-97.28l4.523-16.341c19.883-72.448 69.248-121.771 141.227-141.141 14.549-3.925 19.541-4.395 45.355-4.395s30.805 0.469 45.355 4.395c84.779 22.784 141.952 92.16 146.133 177.237 0.133 2.672 0.209 5.802 0.209 8.95 0 97.5-72.691 178.022-166.835 190.328l-0.969 0.103c-22.912 2.816-180.437 2.347-189.696-0.555zM383.957 240.214c0-66.56-0.939-74.112-11.776-96-12.531-24.685-33.542-43.549-59.114-53.006l-0.748-0.242c-11.435-4.139-15.147-4.608-34.987-4.608s-23.552 0.469-34.987 4.608c-41.948 15.415-71.332 55.020-71.332 101.487 0 7.694 0.806 15.2 2.337 22.438l-0.125-0.705c7.059 31.751 27.502 57.694 54.963 72.040l0.589 0.28c22.528 11.136 28.459 11.861 95.915 12.032l59.307 0.128-0.043-58.453zM768.853 296.107c31.751-7.059 57.694-27.502 72.040-54.963l0.28-0.589c15.872-32.256 16-64.683 0.341-96.341-12.531-24.685-33.542-43.549-59.114-53.006l-0.748-0.242c-11.435-4.139-15.147-4.608-34.987-4.608s-23.552 0.469-34.987 4.608c-26.32 9.698-47.33 28.563-59.578 52.635l-0.283 0.613c-10.837 21.888-11.776 29.44-11.776 96l-0.043 58.453 58.453-0.043c44.672 0 61.269-0.597 70.4-2.517z" />
<glyph unicode="&#xe919;" glyph-name="archive" d="M111.531 808.235c-9.351-2.542-16.968-8.642-21.456-16.719l-0.090-0.177-3.797-7.125-0.469-119.125c-0.299-77.397 0.128-121.387 1.28-125.611 4.053-15.061 15.957-25.003 32.341-26.923l8.619-1.024 0.427-221.227 0.469-221.184 4.267-7.595c4.693-8.405 12.544-14.507 21.973-17.109 8.533-2.389 705.28-2.389 713.813 0 9.493 2.619 17.237 8.778 21.88 16.932l0.093 0.177 4.267 7.595 0.469 221.227 0.427 221.184 8.405 0.981c14.507 1.749 23.637 7.765 30.165 19.968 3.029 5.675 3.2 12.075 3.2 128.853v122.88l-3.797 7.125c-4.523 8.405-11.477 13.739-22.187 16.981-11.307 3.371-789.461 3.285-800.299-0.085zM853.333 661.334v-64h-682.667v128h682.667v-64zM810.667 320v-192h-597.333v384h597.333v-192zM410.197 424.235c-9.351-2.542-16.968-8.642-21.456-16.719l-0.090-0.177c-3.157-5.931-3.797-9.856-3.797-23.339 0-14.123 0.555-17.195 4.267-23.808 4.693-8.405 12.544-14.507 21.973-17.109 8.363-2.347 193.451-2.347 201.813 0 9.493 2.619 17.237 8.778 21.88 16.932l0.093 0.177c3.712 6.656 4.267 9.643 4.224 23.808-0.043 18.475-3.456 27.52-12.843 34.176-11.605 8.277-14.592 8.491-114.944 8.363-72.149-0.085-95.701-0.597-101.12-2.304z" />
<glyph unicode="&#xe91a;" glyph-name="archive-drawer" d="M154.197 850.902c-9.351-2.542-16.968-8.642-21.456-16.719l-0.090-0.177-3.797-7.125v-800.427l4.267-7.595c4.693-8.405 12.544-14.507 21.973-17.109 8.533-2.389 705.28-2.389 713.813 0 9.493 2.619 17.237 8.778 21.88 16.932l0.093 0.177 4.267 7.595v800.427l-3.797 7.125c-4.523 8.405-11.477 13.739-22.187 16.981-11.307 3.371-704.128 3.285-714.965-0.085zM810.667 618.667v-149.333h-597.333v298.667h597.333v-149.333zM410.197 680.235c-9.351-2.542-16.968-8.642-21.456-16.719l-0.090-0.177c-3.157-5.931-3.797-9.856-3.797-23.339 0-14.123 0.555-17.195 4.267-23.808 4.693-8.405 12.544-14.507 21.973-17.109 8.363-2.347 193.451-2.347 201.813 0 9.493 2.619 17.237 8.778 21.88 16.932l0.093 0.177c3.712 6.656 4.267 9.643 4.224 23.808-0.043 18.475-3.456 27.52-12.843 34.176-11.605 8.277-14.592 8.491-114.944 8.363-72.149-0.085-95.701-0.597-101.12-2.304zM810.667 234.667v-149.333h-597.333v298.667h597.333v-149.333zM410.197 296.235c-9.351-2.542-16.968-8.642-21.456-16.719l-0.090-0.177c-3.157-5.931-3.797-9.856-3.797-23.339 0-14.123 0.555-17.195 4.267-23.808 4.693-8.405 12.544-14.507 21.973-17.109 8.363-2.347 193.451-2.347 201.813 0 9.493 2.619 17.237 8.778 21.88 16.932l0.093 0.177c3.712 6.656 4.267 9.643 4.224 23.808-0.043 18.475-3.456 27.52-12.843 34.176-11.605 8.277-14.592 8.491-114.944 8.363-72.149-0.085-95.701-0.597-101.12-2.304z" />
<glyph unicode="&#xe91b;" glyph-name="arrow-anticlockwise" d="M481.28 807.808c-54.357-5.461-96.555-16.981-139.093-38.059-41.481-20.036-76.865-45.914-106.807-77.063l-0.116-0.121-19.925-20.096-0.725 51.627c-0.512 33.237-1.493 53.845-2.773 57.941-4.651 14.464-17.28 23.125-35.968 24.704-21.205 1.792-36.011-5.589-43.392-21.504-3.584-7.765-3.627-9.131-3.627-127.317s0.043-119.552 3.627-127.317c3.944-9.543 11.916-16.731 21.738-19.527l0.235-0.057c12.459-3.84 235.051-3.669 248.021 0.213 15.701 4.651 24.533 19.029 24.533 40.021 0 19.072-6.016 30.72-19.755 38.059-6.869 3.669-8.704 3.755-74.88 4.267-37.291 0.299-67.84 0.896-67.84 1.365 0 0.512 4.523 6.784 10.069 13.995 14.948 18.103 30.93 34.248 48.247 48.86l0.563 0.463c19.456 15.744 52.309 34.603 79.445 45.653 46.891 19.072 106.965 24.32 162.901 14.336 88.747-15.915 170.752-77.909 210.816-159.275 42.411-86.229 42.411-181.888 0-267.392-29.568-59.605-76.331-105.771-137.216-135.467-36.657-18.686-79.947-29.634-125.795-29.634-4.737 0-9.447 0.117-14.127 0.348l0.658-0.026c-69.376 2.688-126.677 24.448-181.376 68.864-15.061 12.245-20.139 15.189-29.141 16.853-10.112 1.92-20.693-2.005-31.061-11.477-17.835-16.299-22.741-35.712-12.928-51.2 14.336-22.571 77.739-64.469 124.715-82.432 102.229-38.997 211.456-34.347 308.352 13.099 38.255 18.857 71.033 42.38 99.363 70.392l-0.035-0.034c46.729 45.223 81.737 102.277 100.207 166.342l0.657 2.661c34.347 118.699 8.107 248.149-69.973 345.728-18.684 22.043-38.592 41.803-60.070 59.746l-0.772 0.628c-47.752 37.558-105.579 64.544-168.739 76.419l-2.44 0.381c-29.568 5.248-71.595 7.467-95.573 5.035z" />
<glyph unicode="&#xe91c;" glyph-name="arrow-axe-left-right" d="M325.12 851.371c-4.053-2.091-41.301-37.803-92.16-88.405-46.933-46.72-87.936-86.699-91.136-88.875-7.467-5.12-15.915-23.211-15.915-34.091 0-10.197 8.491-29.099 15.061-33.451 2.645-1.792 43.648-41.771 91.093-88.832 58.837-58.368 88.619-86.741 93.781-89.344 15.019-7.552 30.592-3.755 45.397 11.051s18.603 30.379 11.051 45.397c-2.517 4.949-21.675 25.515-56.021 60.032l-52.224 52.48h272.981c177.621 0 275.2 0.597 279.211 1.749 9.493 2.619 17.237 8.778 21.88 16.932l0.093 0.177c3.712 6.656 4.267 9.643 4.224 23.808-0.043 18.475-3.456 27.52-12.843 34.176-12.373 8.832-0.981 8.491-293.248 8.491h-272.299l52.224 52.48c34.347 34.517 53.504 55.083 56.021 60.032 7.552 15.019 3.755 30.592-11.051 45.397-14.507 14.507-31.317 18.432-46.123 10.795zM666.709 424.747c-15.744-8.277-28.8-26.795-28.8-40.747 0-14.208 4.48-19.925 59.819-75.52l52.224-52.48h-272.299c-292.267 0-280.875 0.341-293.248-8.491-9.472-6.741-12.885-15.744-12.885-34.176 0-14.123 0.555-17.195 4.267-23.808 4.693-8.405 12.544-14.507 21.973-17.109 4.011-1.152 101.589-1.749 279.211-1.749h272.981l-52.224-52.48c-34.347-34.517-53.504-55.083-56.021-60.032-7.552-15.019-3.755-30.592 11.051-45.397s30.379-18.603 45.397-11.051c5.163 2.603 34.944 30.976 93.781 89.344 47.445 47.061 88.448 87.040 91.093 88.832 6.571 4.352 15.061 23.253 15.061 33.451 0 10.88-8.448 28.971-15.915 34.091-3.2 2.176-44.203 42.155-91.136 88.875-55.808 55.509-87.808 86.144-92.501 88.491-4.653 2.21-10.11 3.501-15.869 3.501-5.794 0-11.283-1.307-16.189-3.641l0.228 0.098z" />
<glyph unicode="&#xe91d;" glyph-name="arrow-axe-up-down" d="M278.613 807.126c-5.845-2.859-11.989-7.211-13.653-9.728-1.621-2.475-41.515-43.349-88.576-90.795-58.368-58.837-86.741-88.619-89.344-93.781-7.552-15.019-3.755-30.592 11.051-45.397s30.379-18.603 45.397-11.051c4.949 2.517 25.515 21.675 60.032 56.021l52.48 52.224v-272.981c0-177.621 0.597-275.2 1.749-279.211 4.565-16.427 16.896-25.472 36.48-26.709 20.693-1.323 34.261 4.651 41.984 18.475l4.267 7.595 0.469 276.395 0.427 276.395 52.48-52.181c34.475-34.347 55.040-53.504 59.989-56.021 15.019-7.552 30.592-3.755 45.397 11.051s18.603 30.379 11.051 45.397c-2.603 5.163-30.976 34.944-89.344 93.781-47.061 47.445-86.955 88.32-88.619 90.837-1.621 2.475-7.893 6.869-13.867 9.728-14.677 6.997-25.301 6.997-39.851-0.043zM708.864 765.568c-9.351-2.542-16.968-8.642-21.456-16.719l-0.090-0.177-3.797-7.125-0.427-276.395-0.469-276.395-52.437 52.181c-32.811 32.64-55.168 53.547-59.648 55.808-15.019 7.552-31.275 3.712-45.781-10.837-14.805-14.805-18.603-30.379-11.051-45.397 2.603-5.163 30.976-34.944 89.344-93.781 47.061-47.445 87.040-88.448 88.832-91.093 4.352-6.571 23.253-15.061 33.451-15.061s29.099 8.491 33.451 15.061c1.792 2.645 41.771 43.648 88.832 91.093 58.368 58.837 86.741 88.619 89.344 93.781 7.552 15.019 3.755 30.592-11.051 45.397-14.507 14.549-30.763 18.389-45.781 10.837-4.48-2.261-26.837-23.168-59.605-55.808l-52.48-52.181-0.427 276.395-0.469 276.395-3.797 7.125c-2.391 4.254-5.427 7.848-9.021 10.784l-0.067 0.053c-11.264 8.064-30.763 10.624-45.397 6.059z" />
<glyph unicode="&#xe91e;" glyph-name="arrow-circle-down" d="M472.747 851.414c-72.777-7.153-138.707-31.396-195.334-68.631l1.627 1.005c-26.097-16.873-48.76-35.564-69.059-56.554l-0.103-0.107c-76.764-76.183-124.283-181.739-124.283-298.394 0-5.528 0.107-11.030 0.318-16.506l-0.024 0.788c3.029-90.411 31.531-171.008 86.187-244.053 16.939-22.613 54.272-60.757 75.392-77.099 61.525-47.531 127.445-75.819 204.8-87.893 27.605-4.309 91.861-4.309 119.467 0 95.488 14.933 175.104 54.912 241.579 121.387s106.453 146.091 121.387 241.579c4.309 27.605 4.309 91.861 0 119.467-12.075 77.397-40.448 143.445-87.893 204.8-14.379 18.56-51.541 55.723-70.272 70.229-88.192 68.224-194.304 99.669-303.787 89.984zM543.317 766.251c80.56-7.432 151.864-42.097 205.726-94.577l-0.073 0.070c64.183-62 104.035-148.833 104.035-244.973 0-54.378-12.749-105.778-35.422-151.375l0.891 1.979c-18.642-38.173-42.775-70.691-71.813-98.063l-0.166-0.155c-24.593-23.856-53.119-43.843-84.478-58.861l-1.922-0.829c-43.256-21.499-94.207-34.080-148.096-34.080s-104.84 12.581-150.075 34.966l1.979-0.886c-45.384 21.996-83.54 52.209-113.979 89.035l-0.453 0.565c-85.291 101.931-102.699 247.381-43.989 366.933 56.012 113.512 170.416 190.5 302.933 191.785l0.171 0.001c8.917 0.085 24.533-0.597 34.731-1.536zM495.531 637.568c-9.351-2.542-16.968-8.642-21.456-16.719l-0.090-0.177-3.797-7.125-0.469-127.019-0.469-126.976-31.104 30.763c-17.621 17.451-34.219 32.341-38.272 34.432-14.976 7.552-31.232 3.712-45.781-10.837-14.805-14.805-18.603-30.379-11.051-45.397 2.517-4.992 25.387-29.355 68.053-72.491 35.328-35.712 65.664-67.072 67.456-69.76 4.352-6.528 23.296-15.019 33.451-15.019s29.099 8.491 33.451 15.019c1.792 2.688 32.128 34.048 67.456 69.76 42.667 43.136 65.536 67.499 68.053 72.491 7.552 15.019 3.755 30.592-11.051 45.397-14.549 14.549-30.805 18.389-45.781 10.837-4.053-2.091-20.651-16.981-38.272-34.432l-31.104-30.763-0.469 127.019-0.469 126.976-3.797 7.125c-2.391 4.254-5.427 7.848-9.021 10.784l-0.067 0.053c-11.264 8.064-30.763 10.624-45.397 6.059z" />
<glyph unicode="&#xe91f;" glyph-name="arrow-circle-down-left" d="M481.28 852.182c-66.005-4.864-136.533-27.52-192.853-62.037-54.741-33.493-109.653-89.003-142.208-143.701-27.655-46.030-47.637-99.96-56.597-157.539l-0.321-2.504c-4.267-27.52-4.267-91.947 0-119.467 14.592-94.592 55.168-175.36 121.387-241.579 66.133-66.133 147.029-106.795 241.579-121.387 27.52-4.267 91.947-4.267 119.467 0 94.549 14.592 175.403 55.253 241.536 121.429 54.2 53.502 93.87 121.597 112.639 197.913l0.598 2.876c9.131 37.376 11.221 56.192 11.221 100.48s-2.091 63.104-11.221 100.48c-26.787 107.367-91.282 196.58-178.286 254.766l-1.554 0.978c-75.733 50.475-173.653 76.032-265.387 69.291zM544.683 766.208c69.938-7.1 132.491-34.099 183.173-75.172l-0.645 0.506c32.229-26.993 59.296-58.831 80.399-94.606l0.924-1.693c69.888-123.349 56.277-278.272-34.005-386.176-30.892-37.391-69.048-67.604-112.443-88.726l-1.989-0.874c-116.48-56.277-253.355-41.984-357.163 37.291-14.464 11.051-43.733 39.765-55.936 54.869-56.107 69.419-83.456 160.384-74.539 247.723 6.82 67.235 31.936 127.556 70.229 177.189l-0.597-0.805c11.051 14.464 39.765 43.733 54.869 55.936 69.333 56.064 160.427 83.456 247.723 74.539zM623.787 595.371c-4.139-2.133-44.416-41.003-101.845-98.304l-95.019-94.805-0.555 41.643c-0.512 39.211-0.768 42.069-4.352 48.768-8.619 16.085-32.128 23.509-53.845 16.981-10.709-3.243-17.664-8.576-22.187-16.981-3.755-7.040-3.797-8.363-4.949-99.285-0.683-50.688-1.237-94.635-1.323-97.664-0.128-5.931 6.827-23.125 11.52-28.416 4.224-4.779 23.211-13.013 29.739-12.885l97.749 1.28c89.813 1.109 92.331 1.237 98.987 4.821 14.293 7.637 18.688 16.64 18.688 38.144 0 18.475-3.371 27.477-12.8 34.176-10.197 7.296-18.56 8.491-58.624 8.491h-37.632l94.933 95.147c65.792 65.963 96.085 97.451 98.688 102.699 7.552 15.061 3.755 30.592-11.051 45.397-14.507 14.507-31.317 18.432-46.123 10.795z" />
<glyph unicode="&#xe920;" glyph-name="arrow-circle-down-right" d="M472.747 851.414c-72.772-7.152-138.701-31.379-195.338-68.59l1.631 1.006c-26.108-16.856-48.774-35.563-69.052-56.588l-0.111-0.116c-53.74-53.378-93.097-121.173-111.785-197.099l-0.599-2.879c-9.131-37.376-11.221-56.192-11.221-100.48s2.091-63.104 11.221-100.48c19.367-79.191 59.037-147.287 113.192-200.745l0.045-0.044c66.176-66.219 146.944-106.795 241.536-121.429 27.52-4.267 91.947-4.267 119.467 0 94.549 14.592 175.403 55.253 241.536 121.429 54.2 53.502 93.87 121.597 112.639 197.913l0.598 2.876c9.173 37.547 11.264 56.192 11.221 100.48-0.043 44.331-2.176 63.445-11.221 100.48-47.048 188.554-214.934 326.036-414.932 326.036-13.671 0-27.192-0.642-40.534-1.899l1.706 0.13zM543.317 766.251c80.556-7.45 151.855-42.111 205.727-94.578l-0.074 0.072c64.199-62.169 104.050-149.15 104.050-245.44 0-37.96-6.194-74.474-17.625-108.585l0.7 2.409c-14.525-42.673-35.465-79.574-62.035-111.641l0.467 0.58c-30.892-37.391-69.048-67.604-112.443-88.726l-1.989-0.874c-43.256-21.499-94.207-34.080-148.096-34.080s-104.84 12.581-150.075 34.966l1.979-0.886c-45.384 21.996-83.54 52.209-113.979 89.035l-0.453 0.565c-74.453 89.003-98.005 213.163-61.568 324.139 18.517 54.496 48.407 100.955 87.040 138.456l0.085 0.082c61.076 59.377 144.553 95.99 236.582 95.99 11.164 0 22.202-0.539 33.090-1.592l-1.384 0.108zM368.043 595.414c-8.789-4.651-20.48-16.555-25.088-25.557-2.294-4.439-3.639-9.69-3.639-15.255 0-5.631 1.377-10.94 3.813-15.609l-0.089 0.187c2.603-5.248 32.896-36.736 98.688-102.699l94.933-95.147h-37.632c-40.064 0-48.427-1.195-58.624-8.491-7.808-5.547-12.459-15.957-13.355-29.909-1.323-20.523 4.693-34.091 18.475-41.813l7.595-4.267 189.909-2.432c6.528-0.128 25.515 8.107 29.739 12.885 4.693 5.291 11.648 22.443 11.52 28.416-0.085 3.029-0.64 46.976-1.28 97.664-1.195 91.435-1.237 92.203-5.077 99.413-7.040 13.227-23.893 20.48-43.307 18.731-18.56-1.707-31.275-11.221-35.541-26.624-0.939-3.413-1.749-23.467-1.749-44.544v-38.357l-95.147 94.933c-62.933 62.805-97.579 96.128-102.315 98.517-4.653 2.21-10.11 3.501-15.869 3.501-5.794 0-11.283-1.307-16.189-3.641l0.228 0.098z" />
<glyph unicode="&#xe921;" glyph-name="arrow-circle-left" d="M472.747 851.414c-72.777-7.153-138.707-31.396-195.334-68.631l1.627 1.005c-26.097-16.873-48.76-35.564-69.059-56.554l-0.103-0.107c-76.764-76.183-124.283-181.739-124.283-298.394 0-5.528 0.107-11.030 0.318-16.506l-0.024 0.788c3.029-90.411 31.531-171.008 86.187-244.053 16.939-22.613 54.272-60.757 75.392-77.099 61.525-47.531 127.445-75.819 204.8-87.893 27.605-4.309 91.861-4.309 119.467 0 95.488 14.933 175.104 54.912 241.579 121.387s106.453 146.091 121.387 241.579c4.309 27.605 4.309 91.861 0 119.467-12.075 77.397-40.448 143.445-87.893 204.8-14.379 18.56-51.541 55.723-70.272 70.229-88.192 68.224-194.304 99.669-303.787 89.984zM543.317 766.251c80.56-7.432 151.864-42.097 205.726-94.577l-0.073 0.070c64.183-62 104.035-148.833 104.035-244.973 0-54.378-12.749-105.778-35.422-151.375l0.891 1.979c-18.642-38.173-42.775-70.691-71.813-98.063l-0.166-0.155c-24.593-23.856-53.119-43.843-84.478-58.861l-1.922-0.829c-43.256-21.499-94.207-34.080-148.096-34.080s-104.84 12.581-150.075 34.966l1.979-0.886c-45.384 21.996-83.54 52.209-113.979 89.035l-0.453 0.565c-85.291 101.931-102.699 247.381-43.989 366.933 56.012 113.512 170.416 190.5 302.933 191.785l0.171 0.001c8.917 0.085 24.533-0.597 34.731-1.536zM453.12 595.371c-3.925-2.048-33.877-30.379-70.827-67.072-35.2-34.987-66.603-65.365-69.803-67.541-7.467-5.12-15.915-23.211-15.915-34.091 0-10.155 8.491-29.099 15.019-33.451 2.688-1.792 34.048-32.128 69.76-67.456 43.136-42.667 67.499-65.536 72.491-68.053 15.019-7.552 30.592-3.755 45.397 11.051s18.603 30.421 11.008 45.397c-2.304 4.523-16.171 20.011-34.645 38.699l-30.805 31.147h123.605c77.568 0 125.952 0.64 129.835 1.749 9.493 2.619 17.237 8.778 21.88 16.932l0.093 0.177c3.712 6.656 4.267 9.643 4.224 23.808-0.043 18.475-3.456 27.52-12.843 34.176-11.861 8.448-12.501 8.491-143.872 8.491h-122.923l30.805 31.147c18.475 18.688 32.341 34.176 34.645 38.699 7.595 14.976 3.797 30.592-11.008 45.397-14.507 14.507-31.317 18.432-46.123 10.795z" />
<glyph unicode="&#xe922;" glyph-name="arrow-circle-right" d="M472.747 851.414c-72.777-7.153-138.707-31.396-195.334-68.631l1.627 1.005c-26.097-16.873-48.76-35.564-69.059-56.554l-0.103-0.107c-76.764-76.183-124.283-181.739-124.283-298.394 0-5.528 0.107-11.030 0.318-16.506l-0.024 0.788c3.029-90.411 31.531-171.008 86.187-244.053 16.939-22.613 54.272-60.757 75.392-77.099 61.525-47.531 127.445-75.819 204.8-87.893 27.605-4.309 91.861-4.309 119.467 0 95.488 14.933 175.104 54.912 241.579 121.387s106.453 146.091 121.387 241.579c4.309 27.605 4.309 91.861 0 119.467-12.075 77.397-40.448 143.445-87.893 204.8-14.379 18.56-51.541 55.723-70.272 70.229-88.192 68.224-194.304 99.669-303.787 89.984zM543.317 766.251c80.56-7.432 151.864-42.097 205.726-94.577l-0.073 0.070c64.183-62 104.035-148.833 104.035-244.973 0-54.378-12.749-105.778-35.422-151.375l0.891 1.979c-18.642-38.173-42.775-70.691-71.813-98.063l-0.166-0.155c-24.593-23.856-53.119-43.843-84.478-58.861l-1.922-0.829c-43.256-21.499-94.207-34.080-148.096-34.080s-104.84 12.581-150.075 34.966l1.979-0.886c-45.384 21.996-83.54 52.209-113.979 89.035l-0.453 0.565c-85.291 101.931-102.699 247.381-43.989 366.933 56.012 113.512 170.416 190.5 302.933 191.785l0.171 0.001c8.917 0.085 24.533-0.597 34.731-1.536zM538.709 595.414c-15.744-8.277-28.8-26.795-28.8-40.747 0-13.099 5.461-20.779 38.485-54.187l30.805-31.147h-122.923c-131.371 0-132.011-0.043-143.872-8.491-9.472-6.741-12.885-15.744-12.885-34.176 0-14.123 0.555-17.195 4.267-23.808 4.693-8.405 12.544-14.507 21.973-17.109 3.883-1.109 52.267-1.749 129.835-1.749h123.605l-30.805-31.147c-18.475-18.688-32.341-34.176-34.645-38.699-7.595-14.976-3.797-30.592 11.008-45.397s30.379-18.603 45.397-11.051c4.992 2.517 29.355 25.387 72.491 68.053 35.712 35.328 67.072 65.664 69.76 67.456 6.528 4.352 15.019 23.296 15.019 33.451 0 10.88-8.448 28.971-15.915 34.091-3.2 2.176-34.603 32.555-69.803 67.541-40.747 40.448-66.603 64.853-71.168 67.157-4.651 2.221-10.108 3.518-15.869 3.518-5.796 0-11.285-1.313-16.186-3.659l0.226 0.097z" />
<glyph unicode="&#xe923;" glyph-name="arrow-circle-up" d="M472.747 851.414c-72.777-7.153-138.707-31.396-195.334-68.631l1.627 1.005c-26.097-16.873-48.76-35.564-69.059-56.554l-0.103-0.107c-76.764-76.183-124.283-181.739-124.283-298.394 0-5.528 0.107-11.030 0.318-16.506l-0.024 0.788c3.029-90.411 31.531-171.008 86.187-244.053 16.939-22.613 54.272-60.757 75.392-77.099 61.525-47.531 127.445-75.819 204.8-87.893 27.605-4.309 91.861-4.309 119.467 0 95.488 14.933 175.104 54.912 241.579 121.387s106.453 146.091 121.387 241.579c4.309 27.605 4.309 91.861 0 119.467-12.075 77.397-40.448 143.445-87.893 204.8-14.379 18.56-51.541 55.723-70.272 70.229-88.192 68.224-194.304 99.669-303.787 89.984zM543.317 766.251c80.56-7.432 151.864-42.097 205.726-94.577l-0.073 0.070c64.183-62 104.035-148.833 104.035-244.973 0-54.378-12.749-105.778-35.422-151.375l0.891 1.979c-18.642-38.173-42.775-70.691-71.813-98.063l-0.166-0.155c-24.593-23.856-53.119-43.843-84.478-58.861l-1.922-0.829c-43.256-21.499-94.207-34.080-148.096-34.080s-104.84 12.581-150.075 34.966l1.979-0.886c-45.384 21.996-83.54 52.209-113.979 89.035l-0.453 0.565c-85.291 101.931-102.699 247.381-43.989 366.933 56.012 113.512 170.416 190.5 302.933 191.785l0.171 0.001c8.917 0.085 24.533-0.597 34.731-1.536zM491.947 636.459c-5.845-2.859-11.989-7.211-13.653-9.685-1.621-2.517-31.872-33.749-67.2-69.461-42.667-43.136-65.536-67.499-68.053-72.491-7.552-15.019-3.755-30.592 11.051-45.397s30.421-18.603 45.397-11.008c4.523 2.304 20.011 16.171 38.699 34.645l31.147 30.805v-123.605c0-77.568 0.64-125.952 1.749-129.835 4.565-16.427 16.896-25.472 36.48-26.709 20.693-1.323 34.261 4.651 41.984 18.475l4.267 7.595 0.469 126.976 0.469 127.019 31.104-30.763c18.645-18.475 34.133-32.299 38.656-34.603 14.976-7.595 30.592-3.797 45.397 11.008s18.603 30.379 11.051 45.397c-2.517 4.992-25.387 29.355-68.053 72.491-35.328 35.712-65.579 66.944-67.243 69.461-1.621 2.475-7.893 6.869-13.867 9.728-14.677 6.997-25.301 6.997-39.851-0.043z" />
<glyph unicode="&#xe924;" glyph-name="arrow-circle-up-left" d="M472.747 851.414c-80.085-7.083-158.251-38.272-225.28-89.899-19.755-15.232-57.771-53.76-73.685-74.709-42.936-55.863-72.902-123.856-84.178-197.99l-0.302-2.416c-4.267-27.733-4.309-92.117-0.043-119.467 7.296-46.763 19.925-87.211 40.32-128.853 61.867-126.251 180.267-212.139 322.688-234.112 27.52-4.267 91.947-4.267 119.467 0 94.592 14.592 175.36 55.168 241.579 121.387 54.166 53.532 93.818 121.636 112.595 197.952l0.599 2.88c9.131 37.376 11.221 56.192 11.221 100.48s-2.091 63.104-11.221 100.48c-47.048 188.554-214.934 326.036-414.932 326.036-13.671 0-27.192-0.642-40.534-1.899l1.706 0.13zM543.317 766.251c80.556-7.45 151.855-42.111 205.727-94.578l-0.074 0.072c106.155-102.443 134.357-262.485 69.547-394.411-17.916-37.176-41.25-68.843-69.397-95.476l-0.15-0.14c-32.676-32.353-72.154-57.904-116.090-74.309l-2.267-0.742c-112.768-42.24-243.627-20.267-335.232 56.363-37.722 31.248-68.248 69.757-89.69 113.527l-0.892 2.015c-56.192 116.48-41.856 253.525 37.291 357.163 11.051 14.464 39.765 43.733 54.869 55.936 58.277 47.336 133.381 76.003 215.181 76.003 10.977 0 21.833-0.516 32.546-1.526l-1.369 0.104zM366.805 595.2c-4.694-2.063-8.701-4.302-12.467-6.869l0.264 0.17c-6.187-4.395-15.019-22.699-14.848-30.805l1.28-97.749 1.152-92.16 4.267-7.595c7.125-12.715 19.285-18.859 37.547-18.859s30.421 6.144 37.547 18.859c4.181 7.424 4.267 8.491 4.821 49.237l0.555 41.643 95.019-94.805c65.877-65.707 97.323-95.957 102.571-98.56 15.061-7.552 30.592-3.755 45.397 11.051s18.603 30.336 11.051 45.397c-2.603 5.248-32.896 36.736-98.688 102.699l-94.933 95.147h38.357c21.077 0 41.131 0.811 44.544 1.749 9.493 2.619 17.237 8.778 21.88 16.932l0.093 0.177c3.712 6.656 4.267 9.643 4.224 23.808-0.043 13.44-0.683 17.451-3.883 23.467-5.2 8.853-13.82 15.222-24 17.325l-0.235 0.040c-4.651 1.067-44.459 1.963-101.077 2.219-85.76 0.427-93.995 0.213-100.437-2.517z" />
<glyph unicode="&#xe925;" glyph-name="arrow-circle-up-right" d="M472.747 851.414c-72.772-7.152-138.701-31.379-195.338-68.59l1.631 1.006c-26.108-16.856-48.774-35.563-69.052-56.588l-0.111-0.116c-53.74-53.378-93.097-121.173-111.785-197.099l-0.599-2.879c-9.131-37.376-11.221-56.192-11.221-100.48s2.091-63.104 11.221-100.48c19.367-79.191 59.037-147.287 113.192-200.745l0.045-0.044c66.176-66.219 146.944-106.795 241.536-121.429 27.52-4.267 91.947-4.267 119.467 0 94.549 14.592 175.403 55.253 241.536 121.429 54.2 53.502 93.87 121.597 112.639 197.913l0.598 2.876c9.173 37.547 11.264 56.192 11.221 100.48-0.043 44.331-2.176 63.445-11.221 100.48-47.048 188.554-214.934 326.036-414.932 326.036-13.671 0-27.192-0.642-40.534-1.899l1.706 0.13zM543.317 766.251c80.556-7.45 151.855-42.111 205.727-94.578l-0.074 0.072c64.199-62.169 104.050-149.15 104.050-245.44 0-37.96-6.194-74.474-17.625-108.585l0.7 2.409c-14.525-42.673-35.465-79.574-62.035-111.641l0.467 0.58c-30.892-37.391-69.048-67.604-112.443-88.726l-1.989-0.874c-43.256-21.499-94.207-34.080-148.096-34.080s-104.84 12.581-150.075 34.966l1.979-0.886c-45.384 21.996-83.54 52.209-113.979 89.035l-0.453 0.565c-74.453 89.003-98.005 213.163-61.568 324.139 18.517 54.496 48.407 100.955 87.040 138.456l0.085 0.082c61.076 59.377 144.553 95.99 236.582 95.99 11.164 0 22.202-0.539 33.090-1.592l-1.384 0.108zM542.677 597.376l-87.936-0.896-8.491-4.352c-14.507-7.467-20.523-20.651-19.2-41.899 1.237-19.584 10.283-31.915 26.709-36.48 3.413-0.939 23.467-1.749 44.544-1.749h38.357l-94.933-95.147c-65.792-65.963-96.085-97.451-98.688-102.699-7.552-15.061-3.755-30.592 11.051-45.397s30.336-18.603 45.397-11.051c5.248 2.603 36.736 32.896 102.699 98.688l95.147 94.933v-38.357c0-21.077 0.811-41.131 1.749-44.544 4.565-16.427 16.896-25.472 36.48-26.709 20.693-1.323 34.261 4.651 41.984 18.475l4.267 7.595 1.195 92.16c0.64 50.688 1.195 94.677 1.28 97.749 0.128 8.107-8.704 26.411-14.848 30.805-9.515 6.784-20.693 10.581-29.995 10.155-4.864-0.213-48.427-0.768-96.768-1.28z" />
<glyph unicode="&#xe926;" glyph-name="arrow-clockwise" d="M471.893 806.528c-53.632-6.528-102.4-22.059-146.219-46.549-87.975-49.912-153.324-131.082-181.51-228.067l-0.676-2.717c-9.034-29.648-14.235-63.725-14.235-99.017 0-1.535 0.010-3.067 0.029-4.597l-0.002 0.232c-0.085-63.787 12.971-118.187 42.325-176.043 19.072-37.632 39.424-65.237 71.424-97.067 57.344-56.96 126.336-92.288 208.725-106.837 29.056-5.163 86.869-5.632 115.712-0.981 64.811 10.411 123.093 34.389 172.331 70.827 37.461 27.733 46.72 41.6 40.917 61.397-3.797 13.099-21.419 31.061-33.877 34.517-14.976 4.139-19.029 2.176-59.051-28.16-37.803-28.715-86.059-47.829-137.515-54.613-80.725-10.581-159.488 11.776-225.152 63.872-74.667 59.221-117.461 157.824-109.952 253.312 6.784 86.528 45.013 158.635 113.365 213.803 80.853 65.323 199.893 82.005 297.131 41.643 48.853-20.267 96.597-57.003 125.696-96.725 3.499-4.821 6.4-9.173 6.4-9.685 0-0.555-30.549-1.195-67.84-1.493-65.664-0.512-68.053-0.64-74.667-4.181-13.909-7.467-19.627-18.603-19.627-38.059 0-21.419 7.979-34.56 24.235-39.979 11.563-3.84 235.051-4.309 247.424-0.512 11.349 3.499 17.579 8.491 22.187 17.792l3.968 8.107v120.32c0 93.611-0.469 121.685-2.176 126.507-3.371 9.472-13.227 18.219-24.107 21.376-17.451 5.077-39.296 0.683-49.195-9.941-8.235-8.832-9.003-15.019-9.003-71.979v-53.077l-16.427 17.536c-57.902 61.156-135.21 103.411-222.036 116.884l-2.178 0.278c-24.619 3.797-72.96 4.736-96.427 1.877z" />
<glyph unicode="&#xe927;" glyph-name="arrow-down" d="M495.531 808.235c-9.351-2.542-16.968-8.642-21.456-16.719l-0.090-0.177-3.797-7.125-0.427-297.771-0.469-297.728-95.104 94.891c-62.976 62.805-97.579 96.128-102.315 98.517-15.019 7.509-31.275 3.627-45.781-10.88-14.805-14.805-18.603-30.336-11.051-45.397 2.645-5.291 42.197-46.165 132.011-136.448 70.528-70.912 129.707-131.072 131.499-133.76 4.352-6.571 23.253-15.061 33.451-15.061s29.099 8.491 33.451 15.061c1.792 2.688 60.971 62.848 131.499 133.76 89.813 90.283 129.365 131.157 132.011 136.448 7.552 15.061 3.755 30.592-11.051 45.397-14.507 14.507-30.763 18.389-45.781 10.88-4.736-2.389-39.339-35.712-102.272-98.517l-95.147-94.891-0.427 297.728-0.469 297.771-3.797 7.125c-2.391 4.254-5.427 7.848-9.021 10.784l-0.067 0.053c-11.264 8.064-30.763 10.624-45.397 6.059z" />
<glyph unicode="&#xe928;" glyph-name="arrow-down-left" d="M751.787 723.371c-4.309-2.219-89.173-85.803-229.931-226.432l-223.104-222.891-0.469 148.395-0.469 148.437-3.797 7.125c-4.523 8.405-11.477 13.739-22.187 16.981-21.717 6.528-45.227-0.896-53.845-16.981l-3.797-7.125-1.109-198.827c-0.64-109.355-1.195-201.344-1.28-204.416-0.171-6.485 8.021-25.472 12.843-29.739 5.333-4.736 22.485-11.648 28.416-11.435 3.029 0.085 94.976 0.64 204.331 1.28 189.781 1.067 199.083 1.237 204.8 4.309 15.189 8.107 19.541 16.683 19.541 38.613 0 18.475-3.371 27.477-12.8 34.176-11.989 8.533-10.88 8.491-165.291 8.491h-144.341l222.933 223.147c160.043 160.171 224.043 225.28 226.773 230.699 7.509 15.061 3.669 30.635-11.093 45.397-14.507 14.507-31.275 18.432-46.123 10.795z" />
<glyph unicode="&#xe929;" glyph-name="arrow-down-right" d="M240.043 723.414c-8.789-4.651-20.48-16.555-25.088-25.557-2.298-4.452-3.645-9.717-3.645-15.297 0-5.613 1.363-10.907 3.777-15.57l-0.089 0.189c2.731-5.419 66.731-70.528 226.773-230.699l222.933-223.147h-144.341c-154.411 0-153.301 0.043-165.291-8.491-7.808-5.547-12.459-15.957-13.355-29.909-1.323-20.523 4.693-34.091 18.475-41.813l7.595-4.267 198.827-1.109c109.355-0.64 201.344-1.195 204.416-1.28 6.485-0.171 25.472 8.021 29.739 12.843 4.736 5.333 11.648 22.485 11.435 28.416-0.085 3.029-0.64 94.976-1.28 204.331l-1.109 198.827-3.883 7.253c-7.040 13.227-23.893 20.48-43.307 18.731-18.56-1.707-31.275-11.221-35.541-26.624-1.109-3.925-1.749-59.349-1.749-151.253v-145.024l-223.147 222.933c-153.173 153.045-225.408 224.128-230.315 226.56-4.653 2.21-10.11 3.501-15.869 3.501-5.794 0-11.283-1.307-16.189-3.641l0.228 0.098z" />
<glyph unicode="&#xe92a;" glyph-name="arrow-fat-down" d="M324.864 850.902c-9.351-2.542-16.968-8.642-21.456-16.719l-0.090-0.177-3.797-7.125-0.469-178.773-0.427-178.773h-89.301c-95.232 0-98.731-0.256-110.251-8.491-9.131-6.485-12.843-15.872-12.885-32.469 0-12.715 0.555-15.445 4.565-22.187 6.997-11.691 396.245-399.744 405.76-404.523 4.509-2.32 9.84-3.68 15.488-3.68s10.979 1.36 15.682 3.77l-0.194-0.090c10.709 5.376 404.139 398.805 409.515 409.515 7.552 15.189 3.627 30.933-11.392 45.525-13.013 12.672-12.8 12.629-112.64 12.629h-87.552l-0.939 357.547-3.797 7.125c-4.523 8.405-11.477 13.739-22.187 16.981-11.221 3.371-362.837 3.285-373.632-0.085zM640 592.64c0-112.213 0.64-177.579 1.749-181.547 2.619-9.493 8.778-17.237 16.932-21.88l0.177-0.093 7.595-4.267 125.44-1.707-279.893-279.893-280.747 280.747h59.733c34.731 0 62.336 0.725 65.92 1.749 9.493 2.619 17.237 8.778 21.88 16.932l0.093 0.177 4.267 7.595 0.939 357.547h255.915v-175.36z" />
<glyph unicode="&#xe92b;" glyph-name="arrow-fat-left" d="M495.787 851.371c-10.155-5.205-403.84-399.317-408.789-409.216-2.32-4.509-3.68-9.84-3.68-15.488s1.36-10.979 3.77-15.682l-0.090 0.194c4.651-9.259 392.832-398.763 404.181-405.504 5.157-2.983 11.285-4.873 17.824-5.202l0.096-0.004c18.901-1.493 32.853 4.821 40.448 18.389l4.267 7.595 0.512 93.44 0.469 93.44h175.317c112.128 0 177.493 0.64 181.461 1.749 9.493 2.619 17.237 8.778 21.88 16.932l0.093 0.177 4.267 7.595v373.76l-3.797 7.125c-2.391 4.254-5.427 7.848-9.021 10.784l-0.067 0.053c-12.117 8.661-8.576 8.491-195.541 8.491h-174.592l-0.512 91.733-0.469 91.733-4.651 7.936c-5.691 8.894-13.47 15.99-22.669 20.711l-0.328 0.153c-7.595 3.883-21.931 3.456-30.379-0.896zM474.453 573.526c4.693-8.405 12.544-14.507 21.973-17.109 3.968-1.109 69.333-1.749 181.547-1.749h175.36v-256h-174.677c-187.008 0-183.467 0.171-195.584-8.491-3.661-2.989-6.697-6.583-8.991-10.651l-0.097-0.186c-3.669-6.912-3.84-9.088-4.651-69.845l-0.853-62.72-279.893 279.893 279.893 279.893 1.707-125.44 4.267-7.595z" />
<glyph unicode="&#xe92c;" glyph-name="arrow-fat-lines-down" d="M324.864 850.902c-9.351-2.542-16.968-8.642-21.456-16.719l-0.090-0.177c-3.157-5.931-3.797-9.856-3.797-23.339 0-14.123 0.555-17.195 4.267-23.808 4.693-8.405 12.544-14.507 21.973-17.109 8.448-2.347 364.032-2.347 372.48 0 9.493 2.619 17.237 8.778 21.88 16.932l0.093 0.177c3.712 6.656 4.267 9.643 4.224 23.808-0.043 18.475-3.456 27.52-12.843 34.176-12.16 8.661-8.149 8.491-200.277 8.363-142.208-0.085-180.821-0.555-186.453-2.304zM324.864 722.902c-9.351-2.542-16.968-8.642-21.456-16.719l-0.090-0.177c-3.157-5.931-3.797-9.856-3.797-23.339 0-14.123 0.555-17.195 4.267-23.808 4.693-8.405 12.544-14.507 21.973-17.109 8.448-2.347 364.032-2.347 372.48 0 9.493 2.619 17.237 8.778 21.88 16.932l0.093 0.177c3.712 6.656 4.267 9.643 4.224 23.808-0.043 18.475-3.456 27.52-12.843 34.176-12.16 8.661-8.149 8.491-200.277 8.363-142.208-0.085-180.821-0.555-186.453-2.304zM324.864 594.902c-9.351-2.542-16.968-8.642-21.456-16.719l-0.090-0.177c-3.627-6.827-3.797-9.173-4.309-57.899l-0.512-50.773h-89.259c-95.147 0-98.645-0.256-110.165-8.491-9.131-6.485-12.843-15.872-12.885-32.469 0-12.715 0.555-15.445 4.565-22.187 6.997-11.691 396.245-399.744 405.76-404.523 4.509-2.32 9.84-3.68 15.488-3.68s10.979 1.36 15.682 3.77l-0.194-0.090c5.419 2.731 63.787 60.032 206.635 202.88s200.149 201.216 202.88 206.635c7.552 15.189 3.627 30.933-11.392 45.525-13.013 12.672-12.8 12.629-112.597 12.629h-87.467l-0.512 50.773c-0.512 48.683-0.725 51.072-4.352 57.899-4.523 8.405-11.477 13.739-22.187 16.981-11.221 3.371-362.837 3.285-373.632-0.085zM640 464.64c0-26.453 0.768-50.091 1.749-53.547 2.619-9.493 8.778-17.237 16.932-21.88l0.177-0.093 7.595-4.267 125.44-1.707-279.893-279.893-280.747 280.747h59.733c34.731 0 62.336 0.725 65.92 1.749 9.493 2.619 17.237 8.778 21.88 16.932l0.093 0.177c4.224 7.552 4.267 7.851 4.821 58.368l0.512 50.773h255.787v-47.36z" />
<glyph unicode="&#xe92d;" glyph-name="arrow-fat-lines-left" d="M495.787 851.371c-10.155-5.205-403.84-399.317-408.789-409.216-2.32-4.509-3.68-9.84-3.68-15.488s1.36-10.979 3.77-15.682l-0.090 0.194c4.651-9.259 392.832-398.763 404.181-405.504 5.157-2.983 11.285-4.873 17.824-5.202l0.096-0.004c18.901-1.493 32.853 4.821 40.448 18.389l4.267 7.595 0.512 93.44 0.469 93.44h47.317c26.411 0 50.005 0.768 53.461 1.749 9.493 2.619 17.237 8.778 21.88 16.932l0.093 0.177 4.267 7.595v373.76l-3.797 7.125c-2.391 4.254-5.427 7.848-9.021 10.784l-0.067 0.053c-10.581 7.552-18.005 8.491-67.541 8.491h-46.592l-0.512 91.733-0.469 91.733-4.651 7.936c-5.691 8.894-13.47 15.99-22.669 20.711l-0.328 0.153c-7.595 3.883-21.931 3.456-30.379-0.896zM474.453 573.526c4.693-8.405 12.544-14.507 21.973-17.109 3.456-0.981 27.093-1.749 53.547-1.749h47.36v-256h-46.677c-49.579 0-57.003-0.939-67.584-8.491-3.661-2.989-6.697-6.583-8.991-10.651l-0.097-0.186c-3.669-6.912-3.84-9.088-4.651-69.845l-0.853-62.72-279.893 279.893 279.893 279.893 1.707-125.44 4.267-7.595zM751.531 637.568c-9.351-2.542-16.968-8.642-21.456-16.719l-0.090-0.177-3.797-7.125-0.469-183.168c-0.299-120.064 0.171-185.387 1.28-189.611 4.48-16.64 16.853-25.771 36.565-27.051 20.693-1.323 34.261 4.651 41.984 18.475l4.267 7.595v373.76l-3.797 7.125c-2.391 4.254-5.427 7.848-9.021 10.784l-0.067 0.053c-11.264 8.064-30.763 10.624-45.397 6.059zM879.531 637.568c-9.351-2.542-16.968-8.642-21.456-16.719l-0.090-0.177-3.797-7.125-0.469-183.168c-0.299-120.064 0.171-185.387 1.28-189.611 4.48-16.64 16.853-25.771 36.565-27.051 20.693-1.323 34.261 4.651 41.984 18.475l4.267 7.595v373.76l-3.797 7.125c-2.391 4.254-5.427 7.848-9.021 10.784l-0.067 0.053c-11.264 8.064-30.763 10.624-45.397 6.059z" />
<glyph unicode="&#xe92e;" glyph-name="arrow-fat-lines-right" d="M497.493 852.182c-9.557-5.12-17.963-12.8-22.656-20.779l-4.651-7.936-0.469-91.648-0.512-91.648-49.92-0.512c-49.707-0.512-49.92-0.512-58.368-4.864-8.76-4.391-15.253-12.21-17.781-21.651l-0.054-0.237c-2.347-8.448-2.347-364.032 0-372.48 2.619-9.493 8.778-17.237 16.932-21.88l0.177-0.093c7.552-4.267 7.851-4.267 58.368-4.779l50.773-0.512v-89.941c0-54.997 0.683-92.331 1.749-96.128 2.619-9.493 8.778-17.237 16.932-21.88l0.177-0.093c6.443-3.627 9.813-4.267 22.101-4.267 12.672 0 15.488 0.555 22.187 4.565 11.691 6.997 399.744 396.245 404.523 405.76 2.32 4.509 3.68 9.84 3.68 15.488s-1.36 10.979-3.77 15.682l0.090-0.194c-5.205 10.411-398.763 404.139-409.131 409.301-8.704 4.352-22.997 4.651-30.379 0.725zM695.467 286.72l-139.947-139.947-0.853 62.72c-0.811 60.757-0.981 62.933-4.651 69.845-2.391 4.254-5.427 7.848-9.021 10.784l-0.067 0.053c-10.581 7.552-18.005 8.491-67.584 8.491h-46.677v256h47.36c26.453 0 50.091 0.768 53.547 1.749 9.493 2.619 17.237 8.778 21.88 16.932l0.093 0.177 4.267 7.595 0.512 63.061 0.555 63.019 280.533-280.533-139.947-139.947zM111.531 637.568c-9.351-2.542-16.968-8.642-21.456-16.719l-0.090-0.177-3.797-7.125-0.469-183.168c-0.299-120.064 0.171-185.387 1.28-189.611 4.48-16.64 16.853-25.771 36.565-27.051 20.693-1.323 34.261 4.651 41.984 18.475l4.267 7.595v373.76l-3.797 7.125c-2.391 4.254-5.427 7.848-9.021 10.784l-0.067 0.053c-11.264 8.064-30.763 10.624-45.397 6.059zM239.531 637.568c-9.351-2.542-16.968-8.642-21.456-16.719l-0.090-0.177-3.797-7.125-0.469-183.168c-0.299-120.064 0.171-185.387 1.28-189.611 4.48-16.64 16.853-25.771 36.565-27.051 20.693-1.323 34.261 4.651 41.984 18.475l4.267 7.595v373.76l-3.797 7.125c-2.391 4.254-5.427 7.848-9.021 10.784l-0.067 0.053c-11.264 8.064-30.763 10.624-45.397 6.059z" />
<glyph unicode="&#xe92f;" glyph-name="arrow-fat-lines-up" d="M495.787 851.371c-8.917-4.565-398.677-393.557-405.035-404.224-4.011-6.699-4.565-9.515-4.565-22.187 0-12.288 0.64-15.659 4.267-22.101 4.693-8.405 12.544-14.507 21.973-17.109 3.797-1.067 41.131-1.749 96.128-1.749h89.941l0.512-50.773c0.512-50.517 0.512-50.816 4.779-58.368 4.693-8.405 12.544-14.507 21.973-17.109 8.448-2.347 364.032-2.347 372.48 0 9.493 2.619 17.237 8.778 21.88 16.932l0.093 0.177c4.224 7.552 4.267 7.851 4.821 58.325l0.512 50.688 183.253 0.981 7.936 4.651c20.395 12.032 29.184 34.773 20.267 52.651-5.205 10.411-398.763 404.139-409.131 409.301-4.68 2.207-10.165 3.495-15.951 3.495-5.857 0-11.406-1.32-16.366-3.679l0.231 0.099zM652.8 609.28l139.947-139.947h-59.051c-62.805 0-68.992-0.64-79.957-8.491-3.661-2.989-6.697-6.583-8.991-10.651l-0.097-0.186c-3.627-6.827-3.797-9.173-4.309-57.899l-0.512-50.773h-255.616l-0.512 50.773c-0.512 48.683-0.725 51.072-4.352 57.899-2.391 4.254-5.427 7.848-9.021 10.784l-0.067 0.053c-10.965 7.851-17.152 8.491-79.957 8.491h-59.051l139.947 139.947c46.385 46.655 92.262 92.261 138.403 137.598l2.397 2.349c0.469 0 63.829-62.976 140.8-139.947zM324.864 210.902c-9.351-2.542-16.968-8.642-21.456-16.719l-0.090-0.177c-3.157-5.931-3.797-9.856-3.797-23.339 0-14.123 0.555-17.195 4.267-23.808 4.693-8.405 12.544-14.507 21.973-17.109 8.448-2.347 364.032-2.347 372.48 0 9.493 2.619 17.237 8.778 21.88 16.932l0.093 0.177c3.712 6.656 4.267 9.643 4.224 23.808-0.043 18.475-3.456 27.52-12.843 34.176-12.16 8.661-8.149 8.491-200.277 8.363-142.208-0.085-180.821-0.555-186.453-2.304zM324.864 82.902c-9.351-2.542-16.968-8.642-21.456-16.719l-0.090-0.177c-3.157-5.931-3.797-9.856-3.797-23.339 0-14.123 0.555-17.195 4.267-23.808 4.693-8.405 12.544-14.507 21.973-17.109 8.448-2.347 364.032-2.347 372.48 0 9.493 2.619 17.237 8.778 21.88 16.932l0.093 0.177c3.712 6.656 4.267 9.643 4.224 23.808-0.043 18.475-3.456 27.52-12.843 34.176-12.16 8.661-8.149 8.491-200.277 8.363-142.208-0.085-180.821-0.555-186.453-2.304z" />
<glyph unicode="&#xe930;" glyph-name="arrow-fat-right" d="M497.493 852.182c-9.557-5.12-17.963-12.8-22.656-20.779l-4.651-7.936-0.469-91.733-0.512-91.733h-174.592c-186.965 0-183.424 0.171-195.541-8.491-3.661-2.989-6.697-6.583-8.991-10.651l-0.097-0.186-3.797-7.125v-373.76l4.267-7.595c4.693-8.405 12.544-14.507 21.973-17.109 3.968-1.109 69.333-1.749 181.547-1.749h175.36v-90.027c0-55.040 0.683-92.416 1.749-96.213 2.619-9.493 8.778-17.237 16.932-21.88l0.177-0.093c6.443-3.627 9.813-4.267 22.101-4.267 12.672 0 15.488 0.555 22.187 4.565 11.691 6.997 399.744 396.245 404.523 405.76 2.32 4.509 3.68 9.84 3.68 15.488s-1.36 10.979-3.77 15.682l0.090-0.194c-5.205 10.411-398.763 404.139-409.131 409.301-8.704 4.352-22.997 4.651-30.379 0.725zM695.467 286.72l-139.947-139.947-0.853 62.72c-0.811 60.757-0.981 62.933-4.651 69.845-2.391 4.254-5.427 7.848-9.021 10.784l-0.067 0.053c-12.117 8.661-8.576 8.491-195.584 8.491h-174.677v256h175.36c112.213 0 177.579 0.64 181.547 1.749 9.493 2.619 17.237 8.778 21.88 16.932l0.093 0.177 4.267 7.595 0.512 63.061 0.555 63.019 280.533-280.533-139.947-139.947z" />
<glyph unicode="&#xe931;" glyph-name="arrow-fat-up" d="M495.787 851.371c-8.917-4.565-398.677-393.557-405.035-404.224-4.011-6.699-4.565-9.515-4.565-22.187 0-12.288 0.64-15.659 4.267-22.101 4.693-8.405 12.544-14.507 21.973-17.109 3.797-1.067 41.173-1.749 96.171-1.749h90.027l0.427-178.773 0.469-178.773 4.267-7.595c4.693-8.405 12.544-14.507 21.973-17.109 8.448-2.347 364.032-2.347 372.48 0 9.493 2.619 17.237 8.778 21.88 16.932l0.093 0.177 4.267 7.595 0.469 178.731 0.469 178.688 183.381 0.981 7.936 4.651c20.395 12.032 29.184 34.773 20.267 52.651-5.205 10.411-398.763 404.139-409.131 409.301-4.68 2.207-10.165 3.495-15.951 3.495-5.857 0-11.406-1.32-16.366-3.679l0.231 0.099zM652.715 609.366l139.861-139.861-124.501-1.024-8.491-4.352c-8.76-4.391-15.253-12.21-17.781-21.651l-0.054-0.237c-1.109-3.968-1.749-69.333-1.749-181.547v-175.36h-255.915l-0.939 357.547-3.797 7.125c-2.391 4.254-5.427 7.848-9.021 10.784l-0.067 0.053c-10.965 7.851-17.152 8.491-79.957 8.491h-59.051l139.947 139.947c46.385 46.655 92.262 92.261 138.403 137.598l2.397 2.349c0.469 0 63.787-62.933 140.715-139.861z" />
<glyph unicode="&#xe932;" glyph-name="arrow-go-back" d="M282.453 894.038c-4.053-2.091-41.301-37.803-92.16-88.405-46.933-46.72-87.936-86.699-91.136-88.875-7.467-5.12-15.915-23.211-15.915-34.091 0-10.197 8.491-29.099 15.061-33.451 2.645-1.792 43.648-41.771 91.093-88.832 58.837-58.368 88.619-86.741 93.781-89.344 15.019-7.552 30.592-3.755 45.397 11.051s18.603 30.379 11.051 45.397c-2.517 4.949-21.675 25.515-56.021 60.032l-52.224 52.48 165.461-0.043c91.051-0.043 172.885-0.768 181.888-1.621 73.173-7.125 137.771-43.691 182.528-103.296 21.547-28.715 39.339-71.68 46.251-111.787 3.243-18.773 2.773-65.621-0.853-84.48-19.883-103.68-96.427-182.315-200.448-205.952-16.384-3.755-18.347-3.797-212.011-4.736l-195.456-0.939-8.491-4.352c-14.507-7.467-20.523-20.651-19.2-41.899 1.237-19.584 10.283-31.915 26.709-36.48 8.661-2.432 370.261-2.347 392.405 0.043 105.565 11.825 195.546 69.846 250.378 153.074l0.801 1.294c13.75 21.983 26.152 47.322 35.87 73.952l0.909 2.848c11.216 31.449 17.698 67.728 17.698 105.52 0 5.16-0.121 10.292-0.36 15.393l0.027-0.721c-3.499 89.643-38.997 170.112-102.144 231.509-51.499 50.091-107.435 78.805-181.504 93.227-18.304 3.541-23.211 3.669-199.552 4.309l-180.736 0.64 52.139 52.395c34.261 34.432 53.419 54.997 55.936 59.947 7.552 15.019 3.755 30.592-11.051 45.397-14.507 14.507-31.317 18.432-46.123 10.795z" />
<glyph unicode="&#xe933;" glyph-name="arrow-go-forward" d="M666.709 894.080c-15.744-8.277-28.8-26.795-28.8-40.747 0-14.208 4.48-19.925 59.733-75.435l52.139-52.395-180.736-0.64c-176.341-0.64-181.248-0.768-199.552-4.309-74.069-14.421-130.005-43.136-181.504-93.227-52.907-51.413-84.437-112.341-98.645-190.421-4.181-23.168-4.267-83.328-0.128-105.813 13.397-72.405 42.837-132.096 88.875-180.352 58.368-61.141 130.56-97.067 213.589-106.325 20.864-2.347 383.531-2.347 391.893 0 9.493 2.619 17.237 8.778 21.88 16.932l0.093 0.177c3.712 6.656 4.267 9.643 4.224 23.808-0.085 22.656-5.419 32.128-22.357 39.637-3.84 1.707-47.403 2.389-200.32 3.157-189.099 0.939-195.925 1.109-210.773 4.48-114.005 26.027-192.896 114.219-204.203 228.352-0.686 6.998-1.077 15.128-1.077 23.349 0 42.952 10.676 83.41 29.518 118.866l-0.665-1.372c34.389 66.859 100.181 117.163 172.843 132.139 25.984 5.376 47.531 5.973 211.755 6.016l165.461 0.043-52.224-52.48c-34.347-34.517-53.504-55.083-56.021-60.032-7.552-15.019-3.755-30.592 11.051-45.397s30.379-18.603 45.397-11.051c5.163 2.603 34.944 30.976 93.781 89.344 47.445 47.061 88.448 87.040 91.093 88.832 6.571 4.352 15.061 23.253 15.061 33.451 0 10.88-8.448 28.971-15.915 34.091-3.2 2.176-44.203 42.155-91.136 88.875-55.808 55.509-87.808 86.144-92.501 88.491-4.653 2.21-10.11 3.501-15.869 3.501-5.794 0-11.283-1.307-16.189-3.641l0.228 0.098z" />
<glyph unicode="&#xe934;" glyph-name="arrow-join" d="M111.531 680.235c-9.351-2.542-16.968-8.642-21.456-16.719l-0.090-0.177c-3.157-5.931-3.797-9.856-3.797-23.339 0-14.123 0.555-17.195 4.267-23.808 4.693-8.405 12.544-14.507 21.973-17.109 3.84-1.067 44.501-1.749 106.368-1.749h100.181l119.424-170.581-119.381-170.752h-99.499c-106.197 0-108.8-0.171-120.448-8.491-9.472-6.741-12.885-15.744-12.885-34.176 0-14.123 0.555-17.195 4.267-23.808 4.693-8.405 12.544-14.507 21.973-17.109 3.883-1.067 49.237-1.749 120.661-1.749 127.872 0 125.141-0.256 137.088 11.819 3.371 3.413 36.864 50.176 74.368 103.851l68.224 97.664h279.765l-30.805-31.147c-18.475-18.688-32.341-34.176-34.645-38.699-7.595-14.976-3.797-30.592 11.008-45.397s30.379-18.603 45.397-11.051c4.992 2.517 29.355 25.387 72.491 68.053 35.712 35.328 67.072 65.664 69.76 67.456 6.528 4.352 15.019 23.296 15.019 33.451 0 10.88-8.448 28.971-15.915 34.091-3.2 2.176-34.603 32.555-69.803 67.541-40.747 40.448-66.603 64.853-71.168 67.157-15.019 7.509-31.275 3.627-45.781-10.88-14.805-14.805-18.603-30.421-11.008-45.397 2.304-4.523 16.171-20.011 34.645-38.699l30.805-31.147-279.68 0.043-68.267 97.664c-37.547 53.717-71.125 100.523-74.581 103.979-11.733 11.776-10.283 11.648-137.771 11.52-88.235-0.085-115.2-0.597-120.704-2.304z" />
<glyph unicode="&#xe935;" glyph-name="arrow-left" d="M410.453 723.371c-4.181-2.176-56.192-52.693-134.827-131.072-70.4-70.187-130.603-129.365-133.803-131.541-7.467-5.12-15.915-23.168-15.915-34.091 0-10.197 8.491-29.099 15.061-33.451 2.688-1.792 62.848-60.971 133.76-131.499 90.283-89.813 131.157-129.365 136.448-132.011 15.061-7.552 30.592-3.755 45.397 11.051s18.603 30.336 11.051 45.397c-2.603 5.248-32.896 36.736-98.688 102.699l-94.933 95.147h294.357c191.915 0 296.491 0.597 300.544 1.749 9.493 2.619 17.237 8.778 21.88 16.932l0.093 0.177c3.712 6.656 4.267 9.643 4.224 23.808-0.043 18.475-3.456 27.52-12.843 34.176-12.373 8.832 0.683 8.491-314.624 8.491h-293.632l94.933 95.147c65.792 65.963 96.085 97.451 98.688 102.699 7.552 15.061 3.755 30.592-11.051 45.397-14.507 14.507-31.317 18.432-46.123 10.795z" />
<glyph unicode="&#xe936;" glyph-name="arrow-loop-left" d="M699.733 808.79c-69.931-7.893-133.931-53.163-165.291-116.949-7.4-14.827-13.699-32.11-18.009-50.165l-0.337-1.675c-2.517-10.923-3.072-24.363-3.627-91.733l-0.683-78.933h-237.653l30.805 31.147c18.475 18.688 32.341 34.176 34.645 38.699 7.595 14.976 3.797 30.592-11.008 45.397-14.507 14.507-30.763 18.389-45.781 10.88-4.565-2.304-30.421-26.709-71.168-67.157-35.2-34.987-66.603-65.365-69.803-67.541-7.467-5.12-15.915-23.211-15.915-34.091 0-10.155 8.491-29.099 15.019-33.451 2.688-1.792 34.048-32.128 69.76-67.456 43.136-42.667 67.499-65.536 72.491-68.053 15.019-7.552 30.592-3.755 45.397 11.051s18.603 30.421 11.008 45.397c-2.304 4.523-16.171 20.011-34.645 38.699l-30.805 31.147h237.867v-175.36c0-112.213 0.64-177.579 1.749-181.547 4.565-16.427 16.896-25.472 36.48-26.709 20.693-1.323 34.261 4.651 41.984 18.475l4.267 7.595 0.469 178.645 0.469 178.688 78.891 0.683c67.328 0.555 80.768 1.109 91.691 3.627 65.323 15.189 117.589 55.040 146.475 111.616 17.28 33.877 23.339 59.264 23.339 97.621s-6.059 63.744-23.339 97.579c-28.064 53.415-76.512 92.915-134.737 108.501l-1.498 0.341c-16.001 4.108-34.371 6.466-53.291 6.466-8.885 0-17.648-0.52-26.261-1.531l1.045 0.1zM762.069 719.83c40.235-11.776 73.515-44.971 85.931-85.76 3.541-11.648 4.181-17.195 4.181-36.736s-0.64-25.088-4.181-36.736c-12.373-40.533-44.245-72.576-85.973-86.315-11.648-3.84-13.952-3.968-88.448-4.565l-76.459-0.597 0.597 75.605c0.597 74.965 0.64 75.776 4.864 89.344 14.619 46.181 53.084 80.709 100.578 89.436l0.798 0.122c14.208 2.56 42.709 0.725 58.112-3.797z" />
<glyph unicode="&#xe937;" glyph-name="arrow-loop-right" d="M315.733 808.79c-69.931-7.893-133.931-53.163-165.291-116.949-15.701-31.915-21.589-57.643-21.589-94.507 0-19.115 0.853-30.464 3.115-40.96 18.347-85.675 80.256-148.181 166.699-168.277 10.923-2.517 24.363-3.072 91.733-3.627l78.933-0.683v-175.275c0-112.128 0.64-177.451 1.749-181.419 4.565-16.427 16.896-25.472 36.48-26.709 20.693-1.323 34.261 4.651 41.984 18.475l4.267 7.595 0.939 357.547h237.781l-30.805-31.147c-18.475-18.688-32.341-34.176-34.645-38.699-7.595-14.976-3.797-30.592 11.008-45.397s30.379-18.603 45.397-11.051c4.992 2.517 29.355 25.387 72.491 68.053 35.712 35.328 67.072 65.664 69.76 67.456 6.528 4.352 15.019 23.296 15.019 33.451 0 10.88-8.448 28.971-15.915 34.091-3.2 2.176-34.603 32.555-69.803 67.541-40.747 40.448-66.603 64.853-71.168 67.157-15.019 7.509-31.275 3.627-45.781-10.88-14.805-14.805-18.603-30.421-11.008-45.397 2.304-4.523 16.171-20.011 34.645-38.699l30.805-31.147h-237.653l-0.683 78.933c-0.555 67.371-1.109 80.811-3.627 91.733-15.403 66.176-56.32 118.997-114.816 148.267-27.493 13.929-59.939 22.088-94.292 22.088-9.069 0-18.005-0.569-26.774-1.672l1.045 0.107zM378.069 719.83c40.192-11.733 73.259-44.757 86.016-85.76 4.224-13.568 4.267-14.379 4.864-89.344l0.597-75.605-76.459 0.597c-74.496 0.597-76.8 0.725-88.448 4.565-41.728 13.739-73.6 45.781-85.973 86.315-3.541 11.648-4.181 17.195-4.181 36.736s0.64 25.088 4.181 36.736c14.554 46.192 53.008 80.736 100.495 89.436l0.796 0.121c14.208 2.56 42.709 0.725 58.112-3.797z" />
</font>
</defs>
</svg>
